<?xml version="1.0" encoding="utf-8"?>
<!-- Generator: Adobe Illustrator 23.0.2, SVG Export Plug-In . SVG Version: 6.00 Build 0)  -->
<svg version="1.1" id="Layer_1" xmlns="http://www.w3.org/2000/svg" xmlns:xlink="http://www.w3.org/1999/xlink" x="0px" y="0px"
	 viewBox="0 0 1806.5 971.7" style="enable-background:new 0 0 1806.5 971.7;" xml:space="preserve">
<style type="text/css">
	.st0{fill:#B17F4B;}
	.st1{fill:#7E5024;}
	.st2{fill:#683E17;}
	.st3{fill:#946138;}
	.st4{fill:#FFFFFF;stroke:#B17F4B;stroke-width:2;stroke-miterlimit:10;}
	.st5{filter:url(#Adobe_OpacityMaskFilter);}
	.st6{fill-rule:evenodd;clip-rule:evenodd;fill:#FFFFFF;}
	.st7{mask:url(#mask-2_10_);fill-rule:evenodd;clip-rule:evenodd;fill:#529542;}
	.st8{filter:url(#Adobe_OpacityMaskFilter_1_);}
	.st9{mask:url(#mask-4_10_);fill-rule:evenodd;clip-rule:evenodd;fill:#457437;}
	.st10{fill:#FAA51A;}
	.st11{fill:#FEDB2E;}
	.st12{fill:#FFCB05;}
	.st13{fill:#5B4D52;}
	.st14{fill:#79666E;}
	.st15{fill:#85737A;}
	.st16{fill-rule:evenodd;clip-rule:evenodd;fill:#5B9C4A;}
	.st17{fill:#FCCE08;}
	.st18{fill:#BC7029;}
	.st19{fill:#FCDC00;}
	.st20{fill:#8A752F;}
	.st21{fill:#604D1E;}
	.st22{opacity:0.15;fill:#010101;}
	.st23{fill:#FDB714;}
	.st24{opacity:7.000000e-02;fill:#010101;}
	.st25{fill:#403115;}
	.st26{fill-rule:evenodd;clip-rule:evenodd;fill:#DA6A28;}
	.st27{fill-rule:evenodd;clip-rule:evenodd;fill:#E8343B;}
	.st28{fill-rule:evenodd;clip-rule:evenodd;fill:#82452A;}
	.st29{filter:url(#Adobe_OpacityMaskFilter_2_);}
	.st30{mask:url(#mask-6_2_);fill-rule:evenodd;clip-rule:evenodd;fill:#E8343B;}
	.st31{fill-rule:evenodd;clip-rule:evenodd;fill:#211F1F;}
	.st32{fill-rule:evenodd;clip-rule:evenodd;fill:#FED2A5;}
	.st33{fill-rule:evenodd;clip-rule:evenodd;fill:#F3A41E;}
	.st34{fill-rule:evenodd;clip-rule:evenodd;fill:#F79A73;}
	.st35{fill:#EFE6DE;}
	.st36{fill:#934722;}
	.st37{fill:#E26426;}
	.st38{fill:#C34B27;}
	.st39{fill:#F68920;}
	.st40{fill:#FFCD0A;}
	.st41{fill:#934721;}
	.st42{fill:#F89921;}
	.st43{fill:#D47828;}
	.st44{fill:#BC6328;}
	.st45{fill:#E3A924;}
	.st46{fill:#492F21;}
	.st47{fill:#79583A;}
	.st48{filter:url(#Adobe_OpacityMaskFilter_3_);}
	.st49{mask:url(#mask-22_1_);fill-rule:evenodd;clip-rule:evenodd;fill:#F3EB36;}
	.st50{fill-rule:evenodd;clip-rule:evenodd;fill:#F1822E;}
</style>
<g>
	<g>
		<g>
			<path class="st0" d="M138.6,509.2c0.2,6.9,0.9,13.4,2.5,20.1c3.7-0.4,7.3-0.6,11-0.9c0.6,0,0.9,1,0.2,1.1c-2.6,0.7-5.9,1-8.3,2.3
				c-3.9,2-2.9,5.6-2.7,9.5c0.4,6.4,1.3,12.7,2.1,19.1c1.9,0.1,3.8,0.1,5.7,0.2c0.6,0,0.9,0.9,0.2,1.1c-0.8,0.3-4.5,0.8-5.2,1.4
				c-1.9,1.8-0.8,5.3-0.7,7.6c0.3,5.2-0.1,10.5,0,15.7c2.2,3.9-0.4,10.8,6.8,10.5c0.8,0,16.2-11.8,15.6-11.5
				c-6.5,3-13.2,5.6-20.2,7.3c-0.1,0-0.2,0-0.2,0c-0.1,7.3,0.3,14.5,0.4,21.8c0.1-0.1,0.2-0.2,0.4-0.2c44.6-4.7,89.1-9.4,133.7-14
				c22.3-2.3,44.6-4.6,66.8-6.8c22.2-2.2,44.6-5.3,66.9-6.5c-0.3-0.2-0.4-0.6-0.1-0.8c8.5-8.1,18.7-14.9,29.2-20.2
				c0-0.4,0.3-0.8,0.8-0.6c-1.6-0.5-4.3,0.1-6-0.2c-1.8-0.3-3.7-0.5-5.5-0.7c-4.4-0.5-8.7-0.9-13.1-1.2c-0.6,0-1-1-0.2-1.2
				c9.1-2,18.3-2.8,27.6-2.3c6.8,0.4,10.7-3.7,15.8-7.7c4.1-3.2,8.2-6.3,12.3-9.4c-7.2-4.4-14.3-8.9-21.4-13.3c0,0,0,0,0,0
				c-0.6,0.1-1.3,0.3-1.9,0.4c0,0.2-0.2,0.3-0.3,0.3c-0.1,0-0.2,0-0.3-0.1c-5.1,1.2-10.1,2.5-15,4.2c-0.6,0.2,14.7-3.7,15.3-4
				c4.5-2.7-6.5-2.2-1.5-3.5c-14-10.1-29.1-18.2-43.9-27.2c-0.5-0.3-0.4-0.9,0-1.1c0,0-0.1,0-0.1,0c-22.2,1.9-44.6,2-66.9,2.9
				c-22.1,0.9-44.2,1.7-66.3,2.6C227.5,505.7,183.1,507.4,138.6,509.2z"/>
			<path class="st1" d="M275.8,502.4c13.5-0.5,27-1.1,40.5-1.6c-1.1-3.3-0.8-7.1-1-10.6c-0.2-4.3-0.5-8.7-0.5-13
				c0-0.1,0-0.2,0.1-0.3c-0.1-0.1-0.2-0.1-0.3-0.2c-12.6,2.6-26.4,4.1-39.3,3c-0.1,0-0.2,0-0.2,0c0,0-0.1,0-0.1-0.1c0,0-0.1,0-0.1,0
				C275.7,487.1,275.9,494.8,275.8,502.4z"/>
			<path class="st1" d="M293.9,837.5c0,0.1,0.1,0.1,0.1,0.2c0.8,3.2,0.5,5.8,4.2,6.4c4.9,0.8,6-4.2,6.8-8.1c0.2-0.8,1.3-0.7,1.4,0.1
				c0.5,2.9,0.2,5.7,4,6.7c1.3,0.3,5.3-0.3,6.5-0.6c6.7-1.6,5.6-8.1,5.7-13.7c0-0.9,1.2-1,1.4-0.1c0.7,3.5,0.6,8.2,3.5,10.4
				c2.1,1.6,2.3,1.3,4.7,1c0.6-0.1,5.4-0.9,5.3-1c-0.2-0.2,0.1-0.6,0.3-0.5c-1.5-18.9-2.2-37.9-4-56.8c-1.8-19.2-4-38.3-6.1-57.5
				c-4.2-37.9-8.8-76.1-8.5-114.3c-10.7,1-21.4,2-32.1,3.1c-2.5,0.2-5.1,0.5-7.6,0.8c0,0,0,0.1,0.1,0.2c2.1,18.7,2.6,37.7,3.8,56.5
				c1.2,18.8,2.4,37.7,3.6,56.5c1.2,18.5,2.3,36.9,3.5,55.3C291.6,800.3,293.5,818.9,293.9,837.5z"/>
			<path class="st2" d="M308,472.2c-12.1,1.5-24.3,2.5-36.5,3.2c1.2,1.2,2.4,2.3,3.7,3.2c0,0,0,0,0.1,0c12.8-0.6,25.4-1.1,38.1-2.8
				c-0.7-0.5-1.4-1-2.1-1.5C310.3,473.6,309,473,308,472.2z"/>
			<path class="st2" d="M269.7,502.6c0.7,0,1.5-0.1,2.2-0.1c1,0,2.1-0.1,3.1-0.1c-0.8-7.6-1.3-15.4-1.1-23.1c0-0.2,0.1-0.3,0.2-0.4
				c-1.6-1.1-3.2-2.4-4.4-3.9C269.4,484.3,269.5,493.4,269.7,502.6z"/>
			<path class="st2" d="M285.7,836.7C285.7,836.8,285.7,836.8,285.7,836.7c1.4,0.8,2.7,2.2,4,3.2c1.4,1.2,2.9,2.3,4.2,3.5
				c-0.3-1.1-0.5-2.2-0.8-3.4c-0.2-0.1-0.3-0.2-0.4-0.5c-2.1-18.7-2.5-37.7-3.7-56.5c-0.6-9.6-1.2-19.1-1.8-28.7l-2.4,0.2
				c0,0.2-0.1,0.5-0.4,0.6c-1.4,0.5-2.8,1.1-4.1,1.6C282.2,783.4,284.2,810.1,285.7,836.7z"/>
			<path class="st2" d="M274.4,674.2c0.3,8.8,0.8,17.6,1.4,26.3c1.2,17.2,3.3,34.2,5,51.3c0,0.1,0,0.2-0.1,0.3
				c1.3,0.4,2.7,1.2,3.9,1.8c0.2,0.1,0.3,0.3,0.3,0.5l2.4-0.2c-0.6-9.3-1.2-18.5-1.8-27.8c-1.2-18.4-2.3-36.9-3.5-55.3
				c-0.6-10-1.5-20-2.1-30c-1.5,0.7-3.3,1-4.6,1.8c-1.6,1-1.7,2.2-1.8,3.9c-0.3,3.4,0.6,4.3,4.2,4.1c0.7,0,0.8,0.9,0.2,1.2
				c-2.1,0.9-3.5,1-4.1,3.6c-0.4,1.8,0.1,5,0.1,6.9C274.1,666.6,274.2,670.4,274.4,674.2z"/>
			<path class="st3" d="M137.6,508.8c-0.2-0.4,0-1,0.6-1c43.5-1.7,87-3.4,130.5-5.1c-0.9-9.4-0.9-19-0.3-28.4c0-0.5,0.5-0.7,0.8-0.6
				c0.2-0.1,0.5-0.2,0.7,0c0.2,0.2,0.4,0.5,0.7,0.7c0,0,0,0,0,0c12.2-1.3,24.6-2.3,36.8-2.9c0-0.3,0.2-0.6,0.5-0.5
				c1.3,0.4,2.5,1.4,3.6,2.2c1.1,0.8,2.1,1.6,3.1,2.4c0.2,0,0.3,0,0.4-0.1c0.4-0.1,0.7,0.5,0.4,0.8c0,0.1,0.1,0.1,0.1,0.2
				c0.2,0.1,0.4,0.2,0.4,0.5c0.3,4.3,0.4,8.7,0.6,13c0.1,3.5,0.8,7.2,0,10.6l21.5-0.8c22.2-0.9,44.6-2.6,66.9-2.4
				c0.5,0,0.6,0.6,0.3,0.8c0.1,0,0.3,0,0.5,0.1c15.2,8.4,30.8,16.9,44.4,27.8c0.3,0.2,0.2,0.5,0.1,0.7c0.2-0.1,0.4,0,0.4,0.3
				c0.1,0.5,0.1,1,0.2,1.5c0,0.1,0,0.2,0,0.3c0.5-0.1,1-0.2,1.5-0.3c0.1-0.4,0.4-0.6,0.9-0.4c7.4,4.3,14.8,8.9,21.8,13.9
				c0,0,0,0,0.1,0.1c0,0,0.1,0,0.2,0c0.1-0.1,0.2-0.2,0.4-0.3c0.5-0.4,1,0.4,0.6,0.8c-0.3,0.2-0.5,0.4-0.8,0.6
				c-0.7,3.9-0.5,7.5,0,11.5c0.2,1.6,0.2,3.1-1.3,3.9c-0.5,1.8-2.6,2.8-4.5,3.9c-6,3.6-11.9,7.2-17.7,11.1
				c-11.5,7.8-21.8,16.8-32.7,25.5c-0.1,0.1-0.1,0.2-0.3,0.3c-0.1,0.1-0.3,0.2-0.5,0.1c-32.7,3.9-65.4,6.9-98.2,10
				c1.6,38.3,4.7,76.2,8.9,114.3c2.1,19.2,4.2,38.3,6,57.5c1.8,19.1,4,38.5,3.8,57.6c0,0.2-0.1,0.4-0.3,0.5c0,0.2-0.2,0.4-0.4,0.5
				c-2.3,1-10.2,3.1-12.5,1.6c-0.9-0.6-1.5-2.2-1.9-4.1c0,0.1,0,0.1,0,0.2c0,0,0,0,0,0c0,0.2,0.1,3.1-0.2,3.5
				c-1.1,2-3.3,1.8-5.5,2.1c-2.5,0.4-9,2.2-11.2,0.7c-0.7-0.5-1.1-1.6-1.4-2.8c-0.3,1.4-0.8,2.7-1.6,3.3c-2.2,1.7-6.4,0.9-9,1
				c-0.3,0-0.6-0.2-0.7-0.5c0-0.1,0-0.2-0.1-0.3c-0.1,0-0.2,0-0.3-0.1c-1.7-1.2-3.4-2.5-5.1-3.8c-1.5-1.1-3.4-2.2-4.4-3.7
				c-0.2-0.3,0-0.6,0.3-0.7c-2.1-26.7-3.7-53.4-5.6-80.1c0-0.6,0.6-0.8,1-0.5c0.9-0.5,1.9-0.9,2.8-1.3c-1-0.4-2-0.9-2.9-1.5
				c-0.2-0.2-0.2-0.5,0-0.7c-0.1-0.1-0.2-0.2-0.2-0.4c-5-32.4-6.6-65.6-7.1-98.3c0-0.3,0.1-0.5,0.4-0.6c0.6-0.3,1.3-0.5,1.9-0.8
				c-0.7-0.1-1.4-0.2-2.2-0.3c-0.3-0.1-0.5-0.3-0.5-0.6c-0.2-3.1,0-5.8,0.6-8.9c0.1-0.3,0.3-0.5,0.6-0.5c1.4,0,2.8-0.3,4.1-0.9
				c-1.6-0.1-3-0.5-4.7-1.2c-0.2-0.1-0.4-0.3-0.4-0.5c0.5-8.3,0.3-16.5-0.4-24.8c0-0.2,0-0.3,0.2-0.5c-39,4-78,8.1-117.1,9.2
				c-0.2,0-0.3-0.1-0.4-0.1c0,0.2-0.1,0.4-0.3,0.4c-2.1,0-4.5-1.8-6-3.2c-1.6-1.5-3.5-3.5-3.9-5.7c0-0.2,0.1-0.4,0.2-0.5
				c-1-7.4-0.9-15.1-0.7-22.6c0-0.9,1.4-1,1.4-0.1c0,0.1,0,0.2,0,0.2c0.6-0.2,1.2-0.4,1.9-0.6c-1.3-1.2-2.6-2.5-3.8-3.9
				c0,0,0,0-0.1-0.1c-0.1-0.1-0.2-0.3-0.2-0.4c0-0.2,0.1-0.4,0.2-0.5c-0.8-7.8-1.2-15.7-1.7-23.6c0-0.3,0.2-0.6,0.5-0.6
				c1.1-0.1,2.2-0.3,3.3-0.5c-0.9,0-1.9-0.1-2.8-0.1c-0.7,0-0.8-1-0.2-1.1c-1-4.8-1.6-9.7-2.1-14.6c-0.3-3.1-2-9.7-0.5-12.6
				c1-1.8,2.5-2,4.5-2.6c0.1,0,0.3-0.1,0.6-0.2c-1.9,0-3.7-0.1-4.3-0.1c0,0,0,0,0,0c-0.2,0-0.4,0-0.5-0.3
				c-2.2-6.6-3.2-13.8-2.8-20.8C137.5,509,137.5,508.9,137.6,508.8z M152,528.4c0.6,0,0.9,1,0.2,1.1c-2.6,0.7-5.9,1-8.3,2.3
				c-3.9,2-2.9,5.6-2.7,9.5c0.4,6.4,1.3,12.7,2.1,19.1c1.9,0.1,3.8,0.1,5.7,0.2c0.6,0,0.9,0.9,0.2,1.1c-0.8,0.3-4.5,0.8-5.2,1.4
				c-1.9,1.8-0.8,5.3-0.7,7.6c0.3,5.2,0.7,10.3,0.8,15.5c7.1-1.1,14.2-1.8,21.3-2.1c0.8,0,0.9,1,0.3,1.3c-6.5,3-13.2,5.6-20.2,7.3
				c-0.1,0-0.2,0-0.2,0c-0.1,7.3,0.3,14.5,0.4,21.8c0.1-0.1,0.2-0.2,0.4-0.2c44.6-4.7,89.1-9.4,133.7-14c22.3-2.3,44.6-4.6,66.8-6.8
				c22.2-2.2,44.6-5.3,66.9-6.5c-0.3-0.2-0.4-0.6-0.1-0.8c8.5-8.1,18.7-14.9,29.2-20.2c0-0.4,0.3-0.8,0.8-0.6
				c-1.6-0.5-4.3,0.1-6-0.2c-1.8-0.3-3.7-0.5-5.5-0.7c-4.4-0.5-8.7-0.9-13.1-1.2c-0.6,0-1-1-0.2-1.2c9.1-2,18.3-2.8,27.6-2.3
				c6.8,0.4,10.7-3.7,15.8-7.7c4.1-3.2,8.2-6.3,12.3-9.4c-7.2-4.4-14.3-8.9-21.4-13.3c0,0,0,0,0,0c-0.6,0.1-1.3,0.3-1.9,0.4
				c0,0.2-0.2,0.3-0.3,0.3c-0.1,0-0.2,0-0.3-0.1c-5.1,1.2-10.1,2.5-15,4.2c-0.6,0.2-1.1-0.7-0.5-1.1c4.5-2.7,9.3-5.2,14.4-6.5
				c-14-10.1-29.1-18.2-43.9-27.2c-0.5-0.3-0.4-0.9,0-1.1c0,0-0.1,0-0.1,0c-22.2,1.9-44.6,2-66.9,2.9c-22.1,0.9-44.2,1.7-66.3,2.6
				c-44.5,1.7-88.9,3.5-133.4,5.2c0.2,6.9,0.9,13.4,2.5,20.1C144.7,528.8,148.4,528.7,152,528.4z M154.4,622.9
				c-0.1-0.4,0.1-0.8,0.6-0.9c87.9-3.1,175.2-16.6,262.9-23.6c-1.7-3.4-3-6.9-3.9-10.5c-0.1,0.1-0.2,0.1-0.3,0.1
				c-22.1,3.1-44.6,4.6-66.9,6.8c-22.3,2.2-44.6,4.5-66.8,6.8c-44.5,4.6-89,9.2-133.5,14c0.9,1.3,1.7,2.7,3,3.9
				C151,620.9,153,621.6,154.4,622.9z M162,585.6c-5.7,0.3-11.3,0.9-16.9,1.7c1.1,1.2,2.2,2.3,3.1,3.6
				C152.9,589.3,157.5,587.5,162,585.6z M280.8,751.9c0,0.1,0,0.2-0.1,0.3c1.3,0.4,2.7,1.2,3.9,1.8c0.2,0.1,0.3,0.3,0.3,0.5
				c0,0.2-0.1,0.5-0.4,0.6c-1.4,0.5-2.8,1.1-4.1,1.6c1.8,26.7,3.8,53.3,5.3,80c0,0,0,0,0,0.1c1.4,0.7,2.8,2.1,4,3.1
				c1.4,1.2,2.9,2.3,4.2,3.5c-0.3-1.1-0.5-2.2-0.8-3.4c-0.2-0.1-0.3-0.2-0.4-0.5c-2.1-18.7-2.5-37.7-3.7-56.5
				c-0.6-9.6-1.2-19.1-1.8-28.7c-0.6-9.3-1.2-18.5-1.8-27.8c-1.2-18.4-2.3-36.9-3.5-55.3c-0.6-10-1.5-20-2.1-30
				c-1.5,0.7-3.3,1-4.6,1.8c-1.6,1-1.7,2.2-1.8,3.9c-0.3,3.4,0.6,4.3,4.2,4.1c0.7,0,0.8,0.9,0.2,1.2c-2.1,0.9-3.5,1-4.1,3.6
				c-0.4,1.8,0.1,5,0.1,6.9c0.1,3.8,0.2,7.6,0.4,11.5c0.3,8.8,0.8,17.6,1.4,26.3C277,717.7,279.1,734.8,280.8,751.9z M273.3,614.5
				c0.4,4.5,0.7,9,0.8,13.5c0.1,5.3-1.9,12.4,5.8,11.8c-0.6-8.7-1.1-17.4-1.2-26.2c0,0,0-0.1,0-0.1c-1.9,0.2-3.8,0.4-5.7,0.6
				C273.2,614.2,273.3,614.3,273.3,614.5z M275,502.4c-0.8-7.6-1.3-15.4-1.1-23.1c0-0.2,0.1-0.3,0.2-0.4c-1.6-1.1-3.2-2.4-4.4-3.9
				c-0.2,9.2-0.1,18.3,0.1,27.5c0.7,0,1.5-0.1,2.2-0.1C272.9,502.5,274,502.5,275,502.4z M298.3,844c4.9,0.8,6-4.2,6.8-8.1
				c0.2-0.8,1.3-0.7,1.4,0.1c0.5,2.9,0.2,5.7,4,6.7c1.3,0.3,5.3-0.3,6.5-0.6c6.7-1.6,5.6-8.1,5.7-13.7c0-0.9,1.2-1,1.4-0.1
				c0.7,3.5,0.6,8.2,3.5,10.4c2.1,1.6,2.3,1.3,4.7,1c0.6-0.1,5.4-0.9,5.3-1c-0.2-0.2,0.1-0.6,0.3-0.5c-1.5-18.9-2.2-37.9-4-56.8
				c-1.8-19.2-4-38.3-6.1-57.5c-4.2-37.9-8.8-76.1-8.5-114.3c-10.7,1-21.4,2-32.1,3.1c-2.5,0.2-5.1,0.5-7.6,0.8c0,0,0,0.1,0.1,0.2
				c2.1,18.7,2.6,37.7,3.8,56.5c1.2,18.8,2.4,37.7,3.6,56.5c1.2,18.5,2.3,36.9,3.5,55.3c1.2,18.5,3.1,37.1,3.5,55.6
				c0,0.1,0.1,0.1,0.1,0.2C294.8,840.8,294.5,843.5,298.3,844z M275.2,478.7C275.3,478.7,275.3,478.6,275.2,478.7
				c12.9-0.7,25.4-1.2,38.2-2.8c-0.7-0.5-1.4-1-2.1-1.5c-1-0.7-2.3-1.3-3.3-2.1c-12.1,1.5-24.3,2.5-36.5,3.2
				C272.7,476.6,273.9,477.7,275.2,478.7z M315.3,490.2c-0.2-4.3-0.5-8.7-0.5-13c0-0.1,0-0.2,0.1-0.3c-0.1-0.1-0.2-0.1-0.3-0.2
				c-12.6,2.6-26.4,4.1-39.3,3c-0.1,0-0.2,0-0.2,0c0,0-0.1,0-0.1-0.1c0,0-0.1,0-0.1,0c0.8,7.5,0.9,15.2,0.8,22.8
				c13.5-0.5,27-1.1,40.5-1.6C315.2,497.5,315.5,493.7,315.3,490.2z M418.8,598.2c7.5-7.5,16.2-14,24.8-20.1c0,0,0,0,0.1-0.1
				c-0.2,0-0.4-0.2-0.4-0.4c-0.4-3.5-0.2-7.3,0.1-10.9c-10,6.1-19.2,12.8-28.5,19.9c0.1,0.1,0.2,0.2,0.2,0.3
				C415.9,590.8,417.2,594.5,418.8,598.2z M444.1,565.2c0.3,0.2,0.5,0.6,0.3,0.9c-0.1,0.1-0.1,0.2-0.2,0.3c-0.1,0.1-0.2,0.2-0.3,0.3
				c0.3,3.6,0.5,7.4,0.1,11c0,0,0,0,0,0c1.9-1.4,3.8-2.7,5.8-4c0.1-4.1,0.5-8,0.2-12.2c-3.9,0.5-8.5-0.6-12.3-0.5
				c-4.8,0.1-9.5,0.6-14.2,1.5c2.9,0.2,5.8,0.4,8.7,0.8C435.8,563.6,441.1,563.4,444.1,565.2z M450.1,529.1c0-0.1,0-0.2,0-0.4
				c0-0.3,0-0.7,0-1.1c0,0,0,0-0.1,0.1c-2.9,1.1-5.8,2.2-8.6,3.5C444.3,530.3,447.2,529.6,450.1,529.1z M457.4,568.7
				c3.5-2.3,16-7.4,16.4-11.9c0-0.2,0.3-0.2,0.3,0c0,0,0,0,0,0.1c0.6-2.1-0.5-5.4-0.4-7.3c0-1.9,0.3-3.7,0.7-5.5
				c-4.2,3.3-8.4,6.6-12.6,9.9c-3,2.3-6.3,6.1-10,7.2c-0.3,0.1-0.7,0.2-1,0.3c0.6,3.6,0.9,7.9,0.1,11.6
				C453,571.5,455.2,570.1,457.4,568.7z"/>
			<path class="st3" d="M146.5,615.7c0.9,1.3,1.7,2.7,3,3.9c1.5,1.4,3.5,2,5,3.3c-0.1-0.4,0.1-0.8,0.6-0.9
				c87.9-3.1,175.2-16.6,262.9-23.6c-1.7-3.4-3-6.9-3.9-10.5c-0.1,0.1-0.2,0.1-0.3,0.1c-22.1,3.1-44.6,4.6-66.9,6.8
				c-22.3,2.2-44.6,4.5-66.8,6.8C235.5,606.3,191,610.9,146.5,615.7z"/>
			<path class="st2" d="M278.7,613.5c-1.9,0.2-3.8,0.4-5.7,0.6c0.1,0.1,0.3,0.2,0.3,0.5c0.4,4.5,0.7,9,0.8,13.5
				c0.1,5.3-1.9,12.4,5.8,11.8c-0.6-8.7-1.1-17.4-1.2-26.2C278.7,613.6,278.7,613.5,278.7,613.5z"/>
			<path class="st3" d="M414.7,586.7c0.1,0.1,0.2,0.2,0.2,0.3c1,3.8,2.3,7.5,3.8,11.2c7.5-7.5,16.2-14,24.8-20.1c0,0,0,0,0.1-0.1
				c-0.2,0-0.4-0.2-0.4-0.4c-0.4-3.5-0.2-7.3,0.1-10.9C433.3,572.9,424,579.6,414.7,586.7z"/>
			<path class="st3" d="M423.5,562.4c2.9,0.2,5.8,0.4,8.7,0.8c3.6,0.4,8.8,0.1,11.9,2c0.3,0.2,0.5,0.6,0.3,0.9
				c-0.1,0.1-0.1,0.2-0.2,0.3c-0.1,0.1-0.2,0.2-0.3,0.3c0.3,3.6,0.5,7.4,0.1,11c0,0,0,0,0,0c1.9-1.4,3.8-2.7,5.8-4
				c0.1-4.1,0.5-8,0.2-12.2c-3.9,0.5-8.5-0.6-12.3-0.5C433,561.1,428.2,561.6,423.5,562.4z"/>
			<path class="st3" d="M450.8,561.4c0.6,3.6,0.9,7.9,0.1,11.6c2.2-1.5,4.3-2.9,6.5-4.3c3.5-2.3,16-7.4,16.4-11.9
				c0-0.2,0.3-0.2,0.3,0c0,0,0,0,0,0.1c0.6-2.1-0.5-5.4-0.4-7.3c0-1.9,0.3-3.7,0.7-5.5c-4.2,3.3-8.4,6.6-12.6,9.9
				c-3,2.3-6.3,6.1-10,7.2C451.5,561.2,451.1,561.3,450.8,561.4z"/>
		</g>
		<g>
			<g>
				<path class="st4" d="M163.4,545.9c0-0.4,0.2-1,0.6-1.6l1.3-1.8c0.4-0.6,0.7-1,0.9-1.2c0.2-0.2,0.5-0.4,0.7-0.4
					c0.2,0,0.5,0.1,0.8,0.2c0.3,0.1,0.8,0.4,1.3,0.7c0.1,0,0.7,0.4,1.9,1.2c1.2,0.7,2.7,1,4.4,0.9c0.6,0,1-0.2,1.3-0.6
					c0.3-0.3,0.5-0.7,0.4-1.1c0-0.6-0.3-1.1-0.9-1.6c-0.6-0.5-1.4-0.7-2.5-0.7l0,0c-2.2-0.3-3.8-0.8-5-1.4c-1.2-0.6-2.1-1.4-2.6-2.3
					c-0.5-0.9-0.9-2-1.1-3.4c-0.2-1.6,0.1-3.1,0.8-4.4c0.7-1.4,1.8-2.4,3.2-3.3c1.4-0.8,3.1-1.3,5-1.4c1.4-0.1,2.8,0.1,4.2,0.4
					c1.2,0.3,2.3,0.6,3.2,1.1c1,0.5,1.8,1,2.3,1.7c0.4,0.3,0.5,0.6,0.6,0.9c0,0.2-0.1,0.5-0.2,0.8c-0.2,0.3-0.5,0.7-0.9,1.2l-1,1.2
					c-0.3,0.4-0.6,0.6-0.7,0.8c-0.2,0.1-0.3,0.2-0.5,0.2c-0.2,0-0.4-0.1-0.7-0.2c-0.3-0.1-0.5-0.3-0.8-0.4c-0.3-0.1-0.5-0.3-0.7-0.4
					c-1.7-1-3.2-1.5-4.5-1.4c-0.8,0-1.4,0.2-1.8,0.6c-0.4,0.4-0.6,0.9-0.6,1.4c0,0.5,0.3,1,0.7,1.4c0.5,0.4,1.1,0.6,1.9,0.7
					c3.5,0.4,6.1,1.3,7.9,2.7c1.8,1.4,2.7,3.2,2.8,5.1c0.1,1.5-0.3,2.9-1.2,4.3c-0.8,1.4-2.1,2.5-3.6,3.4c-1.6,0.9-3.4,1.4-5.3,1.5
					c-3.2,0.1-6.6-0.8-9.9-3C164,547.2,163.4,546.5,163.4,545.9z"/>
				<path class="st4" d="M189.2,537.6l-0.6-12.6c0-0.7,0.4-1.1,1.2-1.1l4.8-0.2c0.5,0,0.9,0.1,1.1,0.2c0.3,0.2,0.4,0.4,0.4,0.8
					l0.7,11.8c0.1,1.6,0.6,2.8,1.5,3.7s2,1.3,3.5,1.2c2.8-0.1,4.1-1.8,4-5l-0.5-12.1c0-0.3,0.1-0.6,0.4-0.8c0.3-0.2,0.6-0.4,1.1-0.4
					l4.8-0.2c0.5,0,0.8,0.1,1.1,0.3c0.3,0.2,0.4,0.5,0.4,0.8l0.2,5.4c0.1,3.3,0.2,5.4,0.3,6.2c0,0.8,0.1,1.3,0.1,1.3
					c0.1,2-0.1,3.8-0.8,5.6s-1.8,3.3-3.5,4.6c-1.8,1.3-4.2,1.9-7.2,2.1c-2.8,0.1-5.1-0.3-7-1.4c-1.9-1.1-3.3-2.5-4.3-4.3
					S189.3,539.7,189.2,537.6z"/>
				<path class="st4" d="M218.6,546.7l-1-22.8c0-0.3,0.1-0.6,0.3-0.9c0.2-0.3,0.5-0.4,0.9-0.4l5.6-0.2c0.2,0,0.5,0,0.8,0.1
					c0.3,0.1,0.5,0.2,0.6,0.3l7.1,7.1l6.8-7.7c0.3-0.3,0.6-0.5,0.9-0.5c0.3-0.1,0.8-0.1,1.2-0.1l4.9-0.2c0.3,0,0.6,0.1,0.9,0.3
					c0.3,0.2,0.4,0.5,0.4,0.9l1,22.8c0,0.4-0.1,0.7-0.3,0.9c-0.2,0.3-0.5,0.4-0.9,0.4l-4.9,0.2c-0.4,0-0.7-0.1-1-0.3
					c-0.3-0.2-0.4-0.5-0.5-0.9l-0.6-13.4l-5.5,7.7c-0.5,0.7-1.1,1-1.8,1.1c-0.4,0-0.7,0-1-0.2c-0.3-0.1-0.6-0.3-0.8-0.6l-6.3-7.3
					l0.6,13.4c0,0.4-0.1,0.7-0.3,0.9c-0.2,0.3-0.5,0.4-0.9,0.4l-4.9,0.2c-0.4,0-0.7-0.1-0.9-0.4C218.7,547.3,218.6,547,218.6,546.7z
					"/>
				<path class="st4" d="M253.3,545.1l-1-22.8c0-0.3,0.1-0.6,0.3-0.9c0.2-0.3,0.5-0.4,0.9-0.4l5.6-0.2c0.2,0,0.5,0,0.8,0.1
					c0.3,0.1,0.5,0.2,0.6,0.3l7.1,7.1l6.8-7.7c0.3-0.3,0.6-0.5,0.9-0.5c0.3-0.1,0.8-0.1,1.2-0.1l4.9-0.2c0.3,0,0.6,0.1,0.9,0.3
					c0.3,0.2,0.4,0.5,0.4,0.9l1,22.8c0,0.4-0.1,0.7-0.3,0.9c-0.2,0.3-0.5,0.4-0.9,0.4l-4.9,0.2c-0.4,0-0.7-0.1-1-0.3
					c-0.3-0.2-0.4-0.5-0.5-0.9l-0.6-13.4l-5.5,7.7c-0.5,0.7-1.1,1-1.8,1.1c-0.4,0-0.7,0-1-0.2c-0.3-0.1-0.6-0.3-0.8-0.6l-6.3-7.3
					l0.6,13.4c0,0.4-0.1,0.7-0.3,0.9c-0.2,0.3-0.5,0.4-0.9,0.4l-4.9,0.2c-0.4,0-0.7-0.1-0.9-0.4
					C253.5,545.8,253.3,545.5,253.3,545.1z"/>
				<path class="st4" d="M295.5,525.6l0.1,2.9l10.2-0.5c0.4,0,0.7,0.1,1.1,0.4c0.3,0.3,0.5,0.7,0.5,1.1l0.1,3.2
					c0,0.4-0.1,0.8-0.4,1.1c-0.3,0.3-0.6,0.5-1,0.5l-10.2,0.5l0.1,3.2l10.8-0.5c0.4,0,0.8,0.1,1.1,0.4c0.3,0.3,0.5,0.7,0.5,1.2
					l0.1,3.1c0,0.4-0.1,0.8-0.4,1.2c-0.3,0.3-0.6,0.5-1,0.5l-17.1,0.8c-0.4,0-0.8-0.1-1.1-0.4c-0.3-0.3-0.5-0.7-0.5-1.1l0-0.1
					l-0.1-3l-0.7-15.8l-0.1-3.2c0-0.5,0.1-0.8,0.4-1.2c0.3-0.3,0.6-0.5,1.1-0.5l17.1-0.8c0.4,0,0.8,0.1,1.1,0.4
					c0.3,0.3,0.5,0.7,0.5,1.1l0.1,3.2c0,0.4-0.1,0.8-0.4,1.1c-0.3,0.3-0.6,0.5-1,0.5L295.5,525.6z"/>
				<path class="st4" d="M327.4,541c-0.3-1.6-0.9-2.8-1.8-3.4c-0.9-0.6-1.9-0.9-3.2-1c-0.2,0-0.4,0-0.6,0c-0.2,0-0.4,0-0.6,0.1l0,0
					l0.2,4.6c0,0.5,0,0.8-0.1,1.1c-0.1,0.3-0.3,0.5-0.7,0.7c-0.4,0.2-1,0.3-1.7,0.4l-3.4,0.1c-0.7,0.1-1.3-0.1-1.8-0.3
					c-0.4-0.3-0.7-0.7-0.7-1.2l-0.4-9.8l-0.6-12.6c0-0.4,0.2-0.7,0.5-1c0.4-0.3,0.8-0.5,1.3-0.5l8.2-0.4c3.6-0.2,6.3,0.3,8.1,1.5
					c1.8,1.2,2.8,3.1,3.1,5.7c0,0.2,0,0.4,0,0.6c0,0.1,0,0.2,0,0.3l0,0.8c-0.1,1.4-0.4,2.5-1,3.4c-0.6,0.9-1.4,1.6-2.4,2.4l0,0
					c1.2,0.5,2.2,1.3,2.9,2.4c0.8,1.1,1.3,2.2,1.6,3.4s0.5,2.2,0.5,3.2c0,0.4-0.1,0.7-0.4,1c-0.3,0.3-0.7,0.4-1.2,0.4l-4.4,0.2
					c-0.6,0-1-0.1-1.2-0.4c-0.2-0.3-0.3-0.6-0.3-1C327.4,541.4,327.4,541.1,327.4,541z M321.5,529.9c1.1,0,2.1-0.3,3-0.7
					c0.9-0.4,1.3-1.4,1.3-2.8c0-1-0.4-1.8-1-2.3c-0.6-0.5-1.5-0.7-2.7-0.7l-3,0.1l0,0.4l0.3,6.1l0.3,0l0.1,0L321.5,529.9z"/>
			</g>
			<g>
				<path class="st4" d="M196,575.2c-0.1-2.4,0.4-4.6,1.5-6.7c1.1-2.1,2.7-3.8,4.7-5.1s4.3-2,6.7-2.1c2.5-0.1,4.8,0.4,7,1.5
					c0.4,0.2,0.7,0.6,0.7,1c0,0.3-0.1,0.6-0.4,1l-3.4,4.1c-0.2,0.3-0.5,0.4-0.8,0.4c-0.2,0-0.5,0-0.7-0.1c-0.7-0.3-1.4-0.4-2.2-0.3
					c-1,0.1-2,0.4-2.8,0.9s-1.5,1.2-2,2.1c-0.5,0.9-0.7,1.8-0.6,2.8c0.1,1,0.4,1.9,0.9,2.7c0.6,0.8,1.3,1.5,2.2,1.9
					c0.9,0.5,1.9,0.7,2.9,0.6c0.8,0,1.5-0.2,2.3-0.6c0.2-0.1,0.4-0.2,0.6-0.2c0.3,0,0.6,0.1,0.8,0.3l4.2,3.7c0.3,0.3,0.5,0.6,0.5,1
					c0,0.4-0.1,0.7-0.5,1c-2.4,1.7-4.9,2.6-7.5,2.7c-2.4,0.1-4.7-0.4-6.9-1.4c-2.2-1.1-3.9-2.6-5.2-4.6
					C196.9,579.8,196.2,577.6,196,575.2z"/>
				<path class="st4" d="M221.1,585.3c0-0.4,0-0.8,0.1-1.2c0.1-0.4,0.2-0.6,0.2-0.7l7-20.9c0.2-0.5,0.5-0.9,0.9-1.2
					c0.4-0.3,0.9-0.5,1.5-0.5l3-0.2l2.3-0.1c0.6,0,1.2,0.1,1.6,0.4c0.4,0.3,0.7,0.7,0.9,1.1l9.2,20c0,0.1,0.1,0.4,0.3,0.7
					c0.1,0.4,0.2,0.7,0.2,1.1c0,0.9-0.4,1.4-1.4,1.6l-5,0.3c-0.5,0-0.9,0-1.3-0.2c-0.4-0.2-0.6-0.4-0.7-0.7l-1.3-3.6l-8.1,0.4
					l-0.9,3.7c-0.1,0.3-0.3,0.6-0.6,0.8c-0.3,0.2-0.7,0.3-1.3,0.3l-5,0.3C221.7,586.6,221.2,586.1,221.1,585.3z M234.6,575.2
					l2.4-0.1l-3.3-8.4l-2.4,8.7L234.6,575.2z"/>
				<path class="st4" d="M251.6,583.9l-1.2-22.8c0-0.3,0.1-0.6,0.3-0.9c0.2-0.3,0.5-0.4,0.9-0.4l5.6-0.3c0.2,0,0.5,0,0.8,0.1
					c0.3,0.1,0.5,0.2,0.6,0.3l7.1,7.1l6.7-7.7c0.3-0.3,0.6-0.5,0.9-0.5c0.3-0.1,0.8-0.1,1.2-0.1l4.9-0.3c0.3,0,0.6,0.1,0.9,0.3
					c0.3,0.2,0.4,0.5,0.4,0.9l1.2,22.8c0,0.4-0.1,0.7-0.3,0.9c-0.2,0.3-0.5,0.4-0.9,0.4l-4.9,0.3c-0.4,0-0.7-0.1-1-0.3
					c-0.3-0.2-0.4-0.5-0.5-0.9l-0.7-13.4l-5.5,7.7c-0.5,0.7-1.1,1-1.8,1.1c-0.4,0-0.7,0-1-0.2c-0.3-0.1-0.6-0.3-0.8-0.6l-6.4-7.2
					l0.7,13.4c0,0.4-0.1,0.7-0.3,0.9c-0.2,0.3-0.5,0.4-0.9,0.4l-4.9,0.3c-0.4,0-0.7-0.1-0.9-0.4
					C251.8,584.5,251.6,584.2,251.6,583.9z"/>
				<path class="st4" d="M286.7,582.1l-0.7-12.9l-0.5-10.1c0-0.4,0.1-0.8,0.5-1.1c0.3-0.3,0.8-0.5,1.3-0.5l7.9-0.4
					c3.6-0.2,6.3,0.3,8.2,1.5c1.9,1.2,3,3.1,3.3,5.7c0,0.1,0,0.3,0,0.6s0.1,0.7,0.1,1.1c0,0.6,0,1,0,1.3c0,1.6-0.4,3.1-1.1,4.6
					c-0.8,1.5-2,2.7-3.9,3.7c-1.8,1-4.2,1.6-7.2,1.7l0.2,3.8c0,0.5-0.2,1-0.7,1.4c-0.5,0.4-1.1,0.6-1.8,0.6l-3.6,0.2
					c-0.6,0-1-0.1-1.4-0.4C286.9,582.9,286.7,582.6,286.7,582.1z M292.7,570.5l2.1-0.1c1.1-0.1,2.1-0.3,3-0.8c0.9-0.5,1.3-1.5,1.2-3
					c-0.1-1.1-0.4-1.9-1-2.4c-0.6-0.5-1.5-0.8-2.7-0.8l-3,0.2c0.1,0,0.1,0,0.1-0.1l0.4,7.2C292.9,570.5,292.8,570.5,292.7,570.5z"/>
			</g>
			<g>
				<g>
					<path class="st4" d="M163.4,545.9c0-0.4,0.2-1,0.6-1.6l1.3-1.8c0.4-0.6,0.7-1,0.9-1.2c0.2-0.2,0.5-0.4,0.7-0.4
						c0.2,0,0.5,0.1,0.8,0.2c0.3,0.1,0.8,0.4,1.3,0.7c0.1,0,0.7,0.4,1.9,1.2c1.2,0.7,2.7,1,4.4,0.9c0.6,0,1-0.2,1.3-0.6
						c0.3-0.3,0.5-0.7,0.4-1.1c0-0.6-0.3-1.1-0.9-1.6c-0.6-0.5-1.4-0.7-2.5-0.7l0,0c-2.2-0.3-3.8-0.8-5-1.4
						c-1.2-0.6-2.1-1.4-2.6-2.3c-0.5-0.9-0.9-2-1.1-3.4c-0.2-1.6,0.1-3.1,0.8-4.4c0.7-1.4,1.8-2.4,3.2-3.3c1.4-0.8,3.1-1.3,5-1.4
						c1.4-0.1,2.8,0.1,4.2,0.4c1.2,0.3,2.3,0.6,3.2,1.1c1,0.5,1.8,1,2.3,1.7c0.4,0.3,0.5,0.6,0.6,0.9c0,0.2-0.1,0.5-0.2,0.8
						c-0.2,0.3-0.5,0.7-0.9,1.2l-1,1.2c-0.3,0.4-0.6,0.6-0.7,0.8c-0.2,0.1-0.3,0.2-0.5,0.2c-0.2,0-0.4-0.1-0.7-0.2
						c-0.3-0.1-0.5-0.3-0.8-0.4c-0.3-0.1-0.5-0.3-0.7-0.4c-1.7-1-3.2-1.5-4.5-1.4c-0.8,0-1.4,0.2-1.8,0.6c-0.4,0.4-0.6,0.9-0.6,1.4
						c0,0.5,0.3,1,0.7,1.4c0.5,0.4,1.1,0.6,1.9,0.7c3.5,0.4,6.1,1.3,7.9,2.7c1.8,1.4,2.7,3.2,2.8,5.1c0.1,1.5-0.3,2.9-1.2,4.3
						c-0.8,1.4-2.1,2.5-3.6,3.4c-1.6,0.9-3.4,1.4-5.3,1.5c-3.2,0.1-6.6-0.8-9.9-3C164,547.2,163.4,546.5,163.4,545.9z"/>
					<path class="st4" d="M189.2,537.6l-0.6-12.6c0-0.7,0.4-1.1,1.2-1.1l4.8-0.2c0.5,0,0.9,0.1,1.1,0.2c0.3,0.2,0.4,0.4,0.4,0.8
						l0.7,11.8c0.1,1.6,0.6,2.8,1.5,3.7s2,1.3,3.5,1.2c2.8-0.1,4.1-1.8,4-5l-0.5-12.1c0-0.3,0.1-0.6,0.4-0.8
						c0.3-0.2,0.6-0.4,1.1-0.4l4.8-0.2c0.5,0,0.8,0.1,1.1,0.3c0.3,0.2,0.4,0.5,0.4,0.8l0.2,5.4c0.1,3.3,0.2,5.4,0.3,6.2
						c0,0.8,0.1,1.3,0.1,1.3c0.1,2-0.1,3.8-0.8,5.6s-1.8,3.3-3.5,4.6c-1.8,1.3-4.2,1.9-7.2,2.1c-2.8,0.1-5.1-0.3-7-1.4
						c-1.9-1.1-3.3-2.5-4.3-4.3S189.3,539.7,189.2,537.6z"/>
					<path class="st4" d="M218.6,546.7l-1-22.8c0-0.3,0.1-0.6,0.3-0.9c0.2-0.3,0.5-0.4,0.9-0.4l5.6-0.2c0.2,0,0.5,0,0.8,0.1
						c0.3,0.1,0.5,0.2,0.6,0.3l7.1,7.1l6.8-7.7c0.3-0.3,0.6-0.5,0.9-0.5c0.3-0.1,0.8-0.1,1.2-0.1l4.9-0.2c0.3,0,0.6,0.1,0.9,0.3
						c0.3,0.2,0.4,0.5,0.4,0.9l1,22.8c0,0.4-0.1,0.7-0.3,0.9c-0.2,0.3-0.5,0.4-0.9,0.4l-4.9,0.2c-0.4,0-0.7-0.1-1-0.3
						c-0.3-0.2-0.4-0.5-0.5-0.9l-0.6-13.4l-5.5,7.7c-0.5,0.7-1.1,1-1.8,1.1c-0.4,0-0.7,0-1-0.2c-0.3-0.1-0.6-0.3-0.8-0.6l-6.3-7.3
						l0.6,13.4c0,0.4-0.1,0.7-0.3,0.9c-0.2,0.3-0.5,0.4-0.9,0.4l-4.9,0.2c-0.4,0-0.7-0.1-0.9-0.4C218.7,547.3,218.6,547,218.6,546.7
						z"/>
					<path class="st4" d="M253.3,545.1l-1-22.8c0-0.3,0.1-0.6,0.3-0.9c0.2-0.3,0.5-0.4,0.9-0.4l5.6-0.2c0.2,0,0.5,0,0.8,0.1
						c0.3,0.1,0.5,0.2,0.6,0.3l7.1,7.1l6.8-7.7c0.3-0.3,0.6-0.5,0.9-0.5c0.3-0.1,0.8-0.1,1.2-0.1l4.9-0.2c0.3,0,0.6,0.1,0.9,0.3
						c0.3,0.2,0.4,0.5,0.4,0.9l1,22.8c0,0.4-0.1,0.7-0.3,0.9c-0.2,0.3-0.5,0.4-0.9,0.4l-4.9,0.2c-0.4,0-0.7-0.1-1-0.3
						c-0.3-0.2-0.4-0.5-0.5-0.9l-0.6-13.4l-5.5,7.7c-0.5,0.7-1.1,1-1.8,1.1c-0.4,0-0.7,0-1-0.2c-0.3-0.1-0.6-0.3-0.8-0.6l-6.3-7.3
						l0.6,13.4c0,0.4-0.1,0.7-0.3,0.9c-0.2,0.3-0.5,0.4-0.9,0.4l-4.9,0.2c-0.4,0-0.7-0.1-0.9-0.4
						C253.5,545.8,253.3,545.5,253.3,545.1z"/>
					<path class="st4" d="M295.5,525.6l0.1,2.9l10.2-0.5c0.4,0,0.7,0.1,1.1,0.4c0.3,0.3,0.5,0.7,0.5,1.1l0.1,3.2
						c0,0.4-0.1,0.8-0.4,1.1c-0.3,0.3-0.6,0.5-1,0.5l-10.2,0.5l0.1,3.2l10.8-0.5c0.4,0,0.8,0.1,1.1,0.4c0.3,0.3,0.5,0.7,0.5,1.2
						l0.1,3.1c0,0.4-0.1,0.8-0.4,1.2c-0.3,0.3-0.6,0.5-1,0.5l-17.1,0.8c-0.4,0-0.8-0.1-1.1-0.4c-0.3-0.3-0.5-0.7-0.5-1.1l0-0.1
						l-0.1-3l-0.7-15.8l-0.1-3.2c0-0.5,0.1-0.8,0.4-1.2c0.3-0.3,0.6-0.5,1.1-0.5l17.1-0.8c0.4,0,0.8,0.1,1.1,0.4
						c0.3,0.3,0.5,0.7,0.5,1.1l0.1,3.2c0,0.4-0.1,0.8-0.4,1.1c-0.3,0.3-0.6,0.5-1,0.5L295.5,525.6z"/>
					<path class="st4" d="M327.4,541c-0.3-1.6-0.9-2.8-1.8-3.4c-0.9-0.6-1.9-0.9-3.2-1c-0.2,0-0.4,0-0.6,0c-0.2,0-0.4,0-0.6,0.1l0,0
						l0.2,4.6c0,0.5,0,0.8-0.1,1.1c-0.1,0.3-0.3,0.5-0.7,0.7c-0.4,0.2-1,0.3-1.7,0.4l-3.4,0.1c-0.7,0.1-1.3-0.1-1.8-0.3
						c-0.4-0.3-0.7-0.7-0.7-1.2l-0.4-9.8l-0.6-12.6c0-0.4,0.2-0.7,0.5-1c0.4-0.3,0.8-0.5,1.3-0.5l8.2-0.4c3.6-0.2,6.3,0.3,8.1,1.5
						c1.8,1.2,2.8,3.1,3.1,5.7c0,0.2,0,0.4,0,0.6c0,0.1,0,0.2,0,0.3l0,0.8c-0.1,1.4-0.4,2.5-1,3.4c-0.6,0.9-1.4,1.6-2.4,2.4l0,0
						c1.2,0.5,2.2,1.3,2.9,2.4c0.8,1.1,1.3,2.2,1.6,3.4s0.5,2.2,0.5,3.2c0,0.4-0.1,0.7-0.4,1c-0.3,0.3-0.7,0.4-1.2,0.4l-4.4,0.2
						c-0.6,0-1-0.1-1.2-0.4c-0.2-0.3-0.3-0.6-0.3-1C327.4,541.4,327.4,541.1,327.4,541z M321.5,529.9c1.1,0,2.1-0.3,3-0.7
						c0.9-0.4,1.3-1.4,1.3-2.8c0-1-0.4-1.8-1-2.3c-0.6-0.5-1.5-0.7-2.7-0.7l-3,0.1l0,0.4l0.3,6.1l0.3,0l0.1,0L321.5,529.9z"/>
				</g>
			</g>
		</g>
	</g>
	
		<g id="Group-7-Copy_1_" transform="translate(389.000000, 519.000000) scale(-1, 1) translate(-389.000000, -519.000000) translate(373.000000, 507.000000)">
		<g>
			<g id="Group-3_10_" transform="translate(14.000000, 0.000000)">
				<defs>
					<filter id="Adobe_OpacityMaskFilter" filterUnits="userSpaceOnUse">
						<feColorMatrix  type="matrix" values="1 0 0 0 0  0 1 0 0 0  0 0 1 0 0  0 0 0 1 0"/>
					</filter>
				</defs>
				<mask maskUnits="userSpaceOnUse" id="mask-2_10_">
					<g class="st5">
						<path id="path-1_10_" class="st6" d="M64.5,282.9c14.9,2.1,29.3,6.8,42.4,14.1c-3.7,10.8-7.4,21.7-11.1,32.5
							c-9.8-1-19.4-0.2-28.6,2.2C66.4,315.4,65.4,299.1,64.5,282.9z"/>
					</g>
				</mask>
				<path id="Fill-1_10_" class="st7" d="M71.2,322.2c-1.1-5.9-2.9-11.5-5.4-16.8c0.8,1.5,1.5,3.1,2.2,4.8c5-18.7,23.4-20.6,39-13.2
					c-6.7,4.4-12.9,10.5-18.2,17.9c-4,6.2-10.3,11.7-16.5,15.6C72.1,327.8,71.7,325,71.2,322.2"/>
			</g>
			<g id="Group-6_10_">
				<defs>
					<filter id="Adobe_OpacityMaskFilter_1_" filterUnits="userSpaceOnUse">
						<feColorMatrix  type="matrix" values="1 0 0 0 0  0 1 0 0 0  0 0 1 0 0  0 0 0 1 0"/>
					</filter>
				</defs>
				<mask maskUnits="userSpaceOnUse" id="mask-4_10_">
					<g class="st8">
						<path id="path-3_10_" class="st6" d="M39.7,283.4c16-2.6,32.1-2.2,47.5,1c-0.2,16.5-0.4,32.9-0.6,49.4
							c-9.3,2.2-18,6.1-25.7,11.6C53.9,324.8,46.8,304.1,39.7,283.4z"/>
					</g>
				</mask>
				<path id="Fill-4_10_" class="st9" d="M47.4,303.4c-0.9-7.1-1.5-14.1-1.8-20.9c15.1,2.1,27.5,11.3,34.5,24.7
					c2.6,5.3,4.4,11,5.5,16.9c0.5,2.8,0.8,5.6,1,8.3c-1.7,1-3.3,2-5,2.7C69.7,341.8,52.5,327.8,47.4,303.4"/>
			</g>
		</g>
	</g>
	<g>
		<path class="st10" d="M411.5,549.9l-7.1-6.2l6.8-6.5c0.2-0.2,0.4-0.6,0.3-0.9c-0.1-0.3-0.3-0.6-0.7-0.7l-9.1-2.6l3.3-8.8
			c0.1-0.3,0.1-0.7-0.2-1c-0.2-0.3-0.6-0.4-0.9-0.3l-9.3,1.5l-0.8-9.3c0-0.3-0.2-0.6-0.6-0.8c-0.3-0.1-0.7-0.1-1,0.1l-7.8,5.3
			l-4.7-8.1c-0.2-0.3-0.5-0.5-0.8-0.5s-0.7,0.2-0.8,0.5l-5.4,9.3l-9.4-5.4c-0.3-0.2-0.7-0.2-1,0c-0.3,0.2-0.5,0.5-0.5,0.8l0,9.4
			l-9.4-0.8c-0.3,0-0.7,0.1-0.9,0.4s-0.2,0.6-0.1,1l4,8.5l-8.8,3.3c-0.3,0.1-0.6,0.4-0.6,0.7c-0.1,0.3,0.1,0.7,0.3,0.9l7.3,5.9
			l-6.5,6.7c-0.2,0.2-0.3,0.6-0.2,0.9c0.1,0.3,0.4,0.6,0.7,0.7l9.1,2.3l-3,8.9c-0.1,0.3,0,0.7,0.2,0.9c0.2,0.3,0.6,0.4,0.9,0.3
			l9.2-1.9l1.1,9.3c0,0.3,0.3,0.6,0.6,0.8c0.3,0.1,0.7,0.1,1-0.1l7.5-5.6l5,7.7c0.2,0.3,0.5,0.4,0.8,0.4c0,0,0,0,0,0
			c0.3,0,0.7-0.2,0.8-0.5l4.4-8l8,5c0.3,0.2,0.7,0.2,1,0c0.3-0.2,0.5-0.5,0.5-0.8l0.4-9.4l9.4,1.1c0.3,0,0.7-0.1,0.9-0.4
			c0.2-0.3,0.3-0.6,0.1-1l-3.7-8.6l8.9-3c0.3-0.1,0.6-0.4,0.6-0.7C411.9,550.5,411.8,550.1,411.5,549.9z"/>
		<ellipse class="st11" cx="378.9" cy="543.9" rx="20" ry="19.9"/>
		<path class="st12" d="M378.9,523.9c-0.5,0-1,0-1.5,0.1c10.3,0.8,18.5,9.4,18.5,19.9c0,10.5-8.1,19.1-18.5,19.9
			c0.5,0,1,0.1,1.5,0.1c11,0,20-8.9,20-19.9C398.8,532.9,389.9,523.9,378.9,523.9z"/>
	</g>
	<g id="Group-14_7_" transform="translate(173.000000, 460.000000)">
		<path class="st13" d="M82,377.9c0.9-8.9,16.7-17.2,32.2-18.5s28.3,4,36.3,8.2s7.1,9.7,7.1,15c0,5.3-29.3,9.5-46.5,8.4
			C93.7,389.9,81.1,386.7,82,377.9z"/>
		<path class="st14" d="M84.3,380c3.4,3.7,30.2,1.4,40.4-2.1s15.9-5.5,13.9-10.1c-2-4.6-7.5-10.7-28.6-7.1S80.9,376.3,84.3,380z"/>
		<path class="st15" d="M97.1,374.3c1.4,1.9,12.2,0.7,16.3-1c4.1-1.8,6.4-2.8,5.6-5.1c-0.8-2.3-3-5.4-11.5-3.6
			C98.9,366.4,95.7,372.4,97.1,374.3z"/>
	</g>
	<g id="Group-14_1_" transform="translate(173.000000, 460.000000)">
		<path class="st13" d="M154.8,382.5c0.5-5.2,9.7-10,18.7-10.8c9-0.8,16.5,2.3,21.1,4.8c4.6,2.5,4.1,5.7,4.1,8.8s-17,5.5-27.1,4.9
			C161.6,389.5,154.3,387.6,154.8,382.5z"/>
		<path class="st14" d="M156.1,383.7c2,2.1,17.6,0.8,23.5-1.2s9.3-3.2,8.1-5.9c-1.2-2.7-4.4-6.2-16.7-4.1
			C158.8,374.6,154.2,381.6,156.1,383.7z"/>
		<path class="st15" d="M163.6,380.4c0.8,1.1,7.1,0.4,9.5-0.6c2.4-1,3.7-1.6,3.3-3c-0.5-1.4-1.8-3.2-6.7-2.1
			C164.7,375.8,162.8,379.3,163.6,380.4z"/>
	</g>
	<path class="st16" d="M493.6,861.8c10.9,10.3,27.3,16.8,44.5,19.9c17.2,3.1,35.1,3.1,52.7,2.1c17.3-1,34.4-2.9,51.3-5.8
		c6-1,12.6-2.5,15.6-6.4c2.7-3.5,2-8.3,6.1-11c2.2-1.5,5.4-1.8,8.3-2.2c12.1-1.3,26-3.1,32-10.9c5.5-7.3,1.2-16.5-4.4-23.7
		c-1.4-1.8-3-3.7-5.5-4.8c-3-1.4-6.8-1.4-10.3-1.3c-46.6,0.6-93.1,1.1-139.7,1.7c-15.6,0.2-31.2,0.4-46.7,1.3
		c-10.3,0.6-31-0.1-38.4,6.2c-6.1,5.2-1.5,13,3.7,17.5c4.2,3.6,9.4,5.6,15.1,7.6C485.1,854.5,488.7,857.2,493.6,861.8z"/>
	<g>
		<path class="st17" d="M691.9,657.5v50.1c0,5.6-4.6,10.1-10.1,10.1h-13c-0.7,0-1.4-0.1-2-0.2c-4.6-0.9-8.1-5-8.1-9.9v-50.1
			c0-4.6,3.1-8.5,7.2-9.7c0.9-0.3,1.9-0.4,2.9-0.4h13c2.5,0,4.9,1,6.7,2.5c0.9,0.8,1.7,1.8,2.3,2.9
			C691.4,654.1,691.9,655.8,691.9,657.5z"/>
		<path class="st17" d="M504.8,742.9v80.6c0,9-7.3,16.3-16.3,16.3h-20.8c-5.7,0-10.7-3-13.7-7.4c-1.7-2.6-2.6-5.6-2.6-8.9v-80.6
			c0-9,7.3-16.3,16.3-16.3h20.8c0.2,0,0.5,0,0.7,0c3.6,0.2,6.8,1.4,9.4,3.5C502.4,733.1,504.8,737.7,504.8,742.9z"/>
		<path class="st18" d="M695.3,654.1v29c0,1.9-1.5,3.6-3.4,4.1c-0.4,0.1-0.9,0.2-1.3,0.2h-19.9c-1.5,0-2.8-0.6-3.7-1.5
			c-0.7-0.7-1.1-1.7-1.1-2.7l0-30.2v-2.5l4.8-0.6h19.9c0.7,0,1.3,0.1,1.9,0.4C694.1,650.9,695.3,652.4,695.3,654.1z"/>
		<path class="st19" d="M695.3,651.6v29c0,2.1-1.5,3.8-3.4,4.2c-0.3,0.1-0.5,0.1-0.8,0.1h-17.7c-1.6,0-3.1-0.9-4.1-2.3
			c-0.4-0.6-0.8-1.2-1-1.9v-27.7h-2.5v-5.6h25.2c1,0,2,0.4,2.7,1C694.7,649.1,695.3,650.3,695.3,651.6z"/>
		<path class="st17" d="M704.4,745.5V826c0,9-7.3,16.3-16.3,16.3h-20.8c-1.1,0-2.2-0.1-3.3-0.3c-7.4-1.5-13-8.1-13-16v-80.6
			c0-8.7,7-15.9,15.6-16.3c0.2,0,0.4,0,0.7,0h20.8c5.6,0,10.5,2.8,13.5,7.1C703.4,738.9,704.4,742.1,704.4,745.5z"/>
		<path class="st18" d="M713.9,732.9v46.6c0,3.7-3.5,6.8-7.7,6.8h-32c-3.9,0-7.2-2.7-7.6-6c0-0.3-0.1-0.5-0.1-0.8l0-48.5v-4l7.7-0.9
			h32c1.1,0,2.1,0.2,3,0.5C712,727.7,713.9,730.1,713.9,732.9z"/>
		<path class="st19" d="M713.9,728.9v46.6c0,3.7-3.1,6.8-6.8,6.8h-28.4c-3.8,0-6.8-3.1-8.1-6.8V731h-4v-8.9h40.5
			c1.7,0,3.3,0.6,4.5,1.7C713,725,713.9,726.8,713.9,728.9z"/>
		
			<rect x="501.5" y="535.9" transform="matrix(0.9574 -0.2887 0.2887 0.9574 -148.5422 175.7161)" class="st20" width="40" height="111.2"/>
		<path class="st18" d="M489.2,777c0,3.7-3.5,6.8-7.7,6.8h-32c-3.1,0-5.7-1.6-6.9-3.9c-0.5-0.9-0.8-1.9-0.8-2.9v-46.6
			c0-3.7,3.5-6.8,7.7-6.8h32l7.7,0.9v4L489.2,777z"/>
		<path class="st19" d="M489.2,719.5v8.9h-4v44.5c-1.3,3.7-4.4,6.8-8.1,6.8h-28.4c-1.7,0-3.3-0.6-4.5-1.7c-1.4-1.2-2.3-3.1-2.3-5.1
			v-46.6c0-3.7,3.1-6.8,6.8-6.8H489.2z"/>
		
			<rect x="514.1" y="531.4" transform="matrix(0.9574 -0.2887 0.2887 0.9574 -148.2838 175.5968)" class="st21" width="14.2" height="118.2"/>
		<polygon class="st22" points="524.6,532.5 518.4,650.5 556.7,640.4 		"/>
		
			<rect x="618.8" y="535.9" transform="matrix(-0.9574 -0.2887 0.2887 -0.9574 1079.7261 1342.1223)" class="st20" width="40" height="111.2"/>
		
			<rect x="632" y="531.4" transform="matrix(-0.9574 -0.2887 0.2887 -0.9574 1080.5565 1340.3572)" class="st21" width="14.2" height="118.2"/>
		<polygon class="st22" points="674,544 603.6,638.8 641.9,650.4 		"/>
		<g>
			<path class="st18" d="M616.3,600.3h-10.5c0-14.3-11.6-26-26-26c-14.3,0-26,11.6-26,26h-10.5c0-20.1,16.4-36.5,36.5-36.5
				C600,563.9,616.3,580.2,616.3,600.3z"/>
		</g>
		<path class="st17" d="M497.2,654.9V705c0,5.6-4.6,10.1-10.1,10.1h-13c-3.2,0-6.1-1.5-7.9-3.9c-1.4-1.7-2.2-3.9-2.2-6.3v-50.1
			c0-3,1.3-5.7,3.5-7.6c1.8-1.6,4.1-2.5,6.7-2.5h13c1,0,2,0.1,2.9,0.4C494.1,646.5,497.2,650.3,497.2,654.9z"/>
		<path class="st18" d="M489.9,680.5c0,2.3-2.1,4.2-4.8,4.2h-19.9c-0.5,0-0.9-0.1-1.3-0.2c-1.6-0.4-2.8-1.5-3.2-2.9
			c-0.1-0.4-0.2-0.8-0.2-1.2v-29c0-2.3,2.2-4.2,4.8-4.2h19.9l4.8,0.6v2.5L489.9,680.5z"/>
		<path class="st19" d="M489.9,644.8v5.6h-2.5V678c-0.8,2.3-2.7,4.2-5.1,4.2h-17.7c-0.3,0-0.5,0-0.8-0.1c-1-0.2-1.9-0.8-2.5-1.6
			c-0.6-0.7-0.9-1.6-0.9-2.6v-29c0-2.3,1.9-4.2,4.2-4.2H489.9z"/>
		<path class="st23" d="M666.6,644.9v170.6c0,21.8-17.8,39.6-39.6,39.6h-98.1c-11.3,0-21.5-4.8-28.7-12.4
			c-6.8-7.1-10.9-16.7-10.9-27.2V644.9c0-21.8,17.8-39.6,39.6-39.6h98.1c10.4,0,19.9,4.1,27,10.7h0
			C661.7,623.2,666.6,633.5,666.6,644.9z"/>
		<path class="st24" d="M666.6,644.9v170.6c0,21.8-17.8,39.6-39.6,39.6h-98.1c-11.3,0-21.5-4.8-28.7-12.4L653.9,616h0
			C661.7,623.2,666.6,633.5,666.6,644.9z"/>
		<g>
			<g>
				<path class="st17" d="M653.9,758.8V830c0,16.3-13.3,29.6-29.6,29.6h-92.9c-16.3,0-29.6-13.3-29.6-29.6v-71.2
					c0-16.3,13.3-29.6,29.6-29.6h92.9C640.6,729.2,653.9,742.6,653.9,758.8z"/>
			</g>
			<g>
				<path class="st18" d="M649.1,733.7c-6.4-6.3-15.1-10.1-24.7-10.1h-92.9c-19.4,0-35.3,15.8-35.3,35.3V830
					c0,11.3,5.3,21.4,13.6,27.8c6,4.7,13.5,7.4,21.6,7.4h92.9c19.4,0,35.3-15.8,35.3-35.3v-71.2C659.6,749,655.6,740.1,649.1,733.7z
					 M648.2,830c0,13.2-10.7,23.9-23.9,23.9h-92.9c-4.8,0-9.2-1.4-12.9-3.8c-6.6-4.3-11-11.7-11-20.1v-71.2
					c0-13.2,10.7-23.9,23.9-23.9h92.9c6.2,0,11.9,2.4,16.2,6.3c4.7,4.4,7.7,10.6,7.7,17.6V830z"/>
			</g>
			<g>
				<path class="st17" d="M653.9,758.8V830c0,16.3-13.3,29.6-29.6,29.6h-92.9c-16.3,0-29.6-13.3-29.6-29.6v-71.2
					c0-16.3,13.3-29.6,29.6-29.6h92.9C640.6,729.2,653.9,742.6,653.9,758.8z"/>
			</g>
		</g>
		<path class="st19" d="M653.9,758.8v25.6H501.9v-25.6c0-16.3,13.3-29.6,29.6-29.6h92.9C640.6,729.2,653.9,742.6,653.9,758.8z"/>
		<path class="st24" d="M659.6,758.8V830c0,19.5-15.8,35.3-35.3,35.3h-92.9c-8.2,0-15.7-2.8-21.6-7.4l4.3-3.9l4.4-3.9l122-108.8
			l4.2-3.8l4.3-3.8C655.6,740.1,659.6,749,659.6,758.8z"/>
		<g>
			<path class="st17" d="M629.4,620.3v57c0,13-9,23.7-20,23.7h-62.9c-4.4,0-8.5-1.7-11.8-4.6c-5-4.3-8.2-11.3-8.2-19.1v-57
				c0-7.8,3.3-14.8,8.3-19.2c3.3-2.8,7.4-4.5,11.7-4.5h62.9c4.1,0,7.9,1.5,11.1,4c0.2,0.2,0.5,0.4,0.7,0.6
				C626.1,605.5,629.4,612.5,629.4,620.3z"/>
		</g>
		<path class="st18" d="M631.1,616.5v20.7c-0.6,0.6-1.2,1.1-1.8,1.6c-12.2,10.8-30.7,17.8-51.5,17.8c-2.5,0-5-0.1-7.4-0.3
			c-17.7-1.4-33.4-7.9-44.1-17.5c-0.6-0.5-1.2-1.1-1.8-1.6v-20.7c0-6.5,4-12.2,10.1-15.3c3.1-1.6,6.8-2.6,10.7-2.6h65.1
			c3.6,0,6.9,0.8,9.8,2.2c0.3,0.1,0.6,0.3,0.8,0.4C627.1,604.3,631.1,610,631.1,616.5z"/>
		<path class="st19" d="M631.1,611.9v20.7c-0.6,0.6-1.2,1.1-1.8,1.6c-12.2,10.8-30.7,17.8-51.5,17.8c-1.2,0-2.3,0-3.5-0.1
			c-19.3-0.7-36.5-7.5-48-17.7c-0.6-0.5-1.2-1.1-1.8-1.6v-20.7c0-9.8,9.3-17.9,20.7-17.9h65.1c4.7,0,9.1,1.4,12.6,3.7
			C627.9,601,631.1,606.1,631.1,611.9z"/>
		<path class="st24" d="M631.1,611.9v25.3c-0.6,0.6-1.2,1.1-1.8,1.6v38.4c0,13-9,23.7-20,23.7h-62.9c-4.4,0-8.5-1.7-11.8-4.6
			l35.9-40l3.9-4.4l45.9-51.2l0.1-0.2l2.6-2.9C627.9,601,631.1,606.1,631.1,611.9z"/>
		<rect x="545.8" y="627.6" class="st21" width="12.1" height="76.7"/>
		<rect x="543.7" y="633.7" class="st25" width="16.4" height="10.1"/>
		<rect x="597.6" y="627.7" class="st21" width="12.1" height="76.7"/>
		<rect x="595.5" y="633.8" class="st25" width="16.4" height="10.1"/>
		<rect x="530.5" y="723.6" class="st21" width="16.6" height="145.9"/>
		<rect x="527.5" y="758.6" class="st25" width="22.6" height="19.3"/>
		<rect x="607.3" y="723.6" class="st21" width="16.6" height="145.9"/>
		<rect x="604.3" y="758.6" class="st25" width="22.6" height="19.3"/>
	</g>
	<path class="st16" d="M758.5,870.6c5.2,1.1,38.6,5,73.5-0.2c4-0.6,8.1-1.8,11.9-3.1c3.8-1.2,7.3-3.2,8.1-5.9c0.9-3-1.7-6.2-5.6-8.2
		c-3.9-2-8.8-2.9-13.7-3.5c-14.8-1.7-29.9-0.3-44.2,2c-10.8,1.7-22.1,3.6-32.4,6.2C751.4,859.1,737.5,866.3,758.5,870.6z"/>
	<g>
		<path id="Fill-571" class="st26" d="M798.1,785.2c5,0.3,8.8,4.7,8.5,9.7c-0.3,5-4.6,8.8-9.6,8.5c-5-0.3-8.8-4.7-8.5-9.7
			C788.8,788.7,793.1,784.9,798.1,785.2"/>
		<path id="Fill-573" class="st26" d="M797.6,785.2c5,0.3,8.8,4.7,8.5,9.7c-0.3,5-4.6,8.8-9.6,8.5c-5-0.3-8.8-4.7-8.5-9.7
			C788.2,788.7,792.6,784.9,797.6,785.2"/>
		<path id="Fill-575" class="st26" d="M797,785.2c5,0.3,8.8,4.7,8.5,9.7c-0.3,5-4.6,8.8-9.6,8.5c-5-0.3-8.8-4.7-8.5-9.7
			C787.7,788.7,792,784.9,797,785.2"/>
		<path id="Fill-577" class="st26" d="M796.4,785.2c5,0.3,8.8,4.7,8.5,9.7c-0.3,5-4.6,8.8-9.6,8.5c-5-0.3-8.8-4.7-8.5-9.7
			C787.1,788.7,791.4,784.9,796.4,785.2"/>
		<path id="Fill-579" class="st26" d="M795.9,785.2c5,0.3,8.8,4.7,8.5,9.7c-0.3,5-4.6,8.8-9.6,8.5c-5-0.3-8.8-4.7-8.5-9.7
			C786.5,788.7,790.9,784.9,795.9,785.2"/>
		<path id="Fill-581" class="st26" d="M795.3,785.2c5,0.3,8.8,4.7,8.5,9.7c-0.3,5-4.6,8.8-9.6,8.5c-5-0.3-8.8-4.7-8.5-9.7
			C786,788.7,790.3,784.9,795.3,785.2"/>
		<path id="Fill-585" class="st26" d="M794.1,785.2c5,0.3,8.8,4.7,8.5,9.7c-0.3,5-4.6,8.8-9.6,8.5c-5-0.3-8.8-4.7-8.5-9.7
			C784.8,788.6,789.1,784.9,794.1,785.2"/>
		<path id="Fill-587" class="st26" d="M793.6,785.2c5,0.3,8.8,4.7,8.5,9.7c-0.3,5-4.6,8.8-9.6,8.5c-5-0.3-8.8-4.7-8.5-9.7
			C784.2,788.6,788.6,784.8,793.6,785.2"/>
		<path id="Fill-589" class="st26" d="M793,785.1c5,0.3,8.8,4.7,8.5,9.7c-0.3,5-4.6,8.8-9.6,8.5c-5-0.3-8.8-4.7-8.5-9.7
			C783.7,788.6,788,784.8,793,785.1"/>
		<path id="Fill-591" class="st26" d="M792.4,785.1c5,0.3,8.8,4.7,8.5,9.7c-0.3,5-4.6,8.8-9.6,8.5c-5-0.3-8.8-4.7-8.5-9.7
			C783.1,788.6,787.4,784.8,792.4,785.1"/>
		<path id="Fill-593" class="st26" d="M791.8,785.1c5,0.3,8.8,4.7,8.5,9.7c-0.3,5-4.6,8.8-9.6,8.5c-5-0.3-8.8-4.7-8.5-9.7
			C782.5,788.5,786.8,784.7,791.8,785.1"/>
		<path id="Fill-595" class="st26" d="M791.2,785c5,0.3,8.8,4.7,8.5,9.7c-0.3,5-4.6,8.8-9.6,8.5c-5-0.3-8.8-4.7-8.5-9.7
			C781.9,788.5,786.2,784.7,791.2,785"/>
		<path id="Fill-597" class="st26" d="M790.6,785c5,0.3,8.8,4.7,8.5,9.7c-0.3,5-4.6,8.8-9.6,8.5c-5-0.3-8.8-4.7-8.5-9.7
			C781.3,788.4,785.6,784.6,790.6,785"/>
		<path id="Fill-599" class="st26" d="M790,784.9c5,0.3,8.8,4.7,8.5,9.7c-0.3,5-4.6,8.8-9.6,8.5c-5-0.3-8.8-4.7-8.5-9.7
			C780.7,788.4,785,784.6,790,784.9"/>
		<path id="Fill-601" class="st26" d="M789.4,784.8c5,0.3,8.8,4.7,8.5,9.7c-0.3,5-4.6,8.8-9.6,8.5c-5-0.3-8.8-4.7-8.5-9.7
			C780.1,788.3,784.4,784.5,789.4,784.8"/>
		<path id="Fill-603" class="st26" d="M788.8,784.8c5,0.3,8.8,4.7,8.5,9.7c-0.3,5-4.6,8.8-9.6,8.5c-5-0.3-8.8-4.7-8.5-9.7
			C779.5,788.3,783.8,784.5,788.8,784.8"/>
		<path id="Fill-605" class="st26" d="M788.2,784.7c5,0.3,8.8,4.7,8.5,9.7c-0.3,5-4.6,8.8-9.6,8.5c-5-0.3-8.8-4.7-8.5-9.7
			C778.9,788.2,783.2,784.4,788.2,784.7"/>
		<path id="Fill-607" class="st26" d="M787.6,784.6c5,0.3,8.8,4.7,8.5,9.7c-0.3,5-4.6,8.8-9.6,8.5c-5-0.3-8.8-4.7-8.5-9.7
			C778.3,788.1,782.6,784.3,787.6,784.6"/>
		<path id="Fill-609" class="st26" d="M787,784.6c5,0.3,8.8,4.7,8.5,9.7c-0.3,5-4.6,8.8-9.6,8.5c-5-0.3-8.8-4.7-8.5-9.7
			C777.7,788,782,784.2,787,784.6"/>
		<path id="Fill-611" class="st26" d="M786.4,784.5c5,0.3,8.8,4.7,8.5,9.7c-0.3,5-4.6,8.8-9.6,8.5c-5-0.3-8.8-4.7-8.5-9.7
			C777.1,787.9,781.4,784.1,786.4,784.5"/>
		<path id="Fill-613" class="st26" d="M785.8,784.4c5,0.3,8.8,4.7,8.5,9.7c-0.3,5-4.6,8.8-9.6,8.5c-5-0.3-8.8-4.7-8.5-9.7
			C776.5,787.8,780.8,784.1,785.8,784.4"/>
		<path id="Fill-933" class="st26" d="M792.8,788.3c1.4,0.1,2.6-1.5,2.8-3.5c0.1-2.1-0.9-3.8-2.3-3.9c-1.4-0.1-2.6,1.5-2.8,3.6
			C790.4,786.5,791.4,788.2,792.8,788.3"/>
		<path id="Fill-977" class="st27" d="M804.1,755c-0.2-5.1-1.5-10.2-4.1-14.9c-9.6-17.8-33.6-24-54-14
			c-21.7,10.6-31.4,34.9-21.7,53.8c2.3,4.5,5.4,8.2,9.2,11.2c4.3,3.4,5.8,9,4,14.4c-4,12.1-3.6,25.2,2.3,36.8
			c12.5,24.8,45.5,33.7,73.6,19.8c28.7-14.3,41.5-46.7,28.6-71.9c-6-11.7-16.4-19.8-28.7-23.6C808,764.9,804.3,760.5,804.1,755"/>
		<polygon id="Fill-979" class="st28" points="770.4,752.1 751,762.1 672.1,604.3 688.3,596 		"/>
		<g id="Group-983" transform="translate(211.220690, 42.405000)">
			<defs>
				<filter id="Adobe_OpacityMaskFilter_2_" filterUnits="userSpaceOnUse" x="443.4" y="524.3" width="41.8" height="47.3">
					<feColorMatrix  type="matrix" values="1 0 0 0 0  0 1 0 0 0  0 0 1 0 0  0 0 0 1 0"/>
				</filter>
			</defs>
			<mask maskUnits="userSpaceOnUse" x="443.4" y="524.3" width="41.8" height="47.3" id="mask-6_2_">
				<g class="st29">
					<polygon id="path-5_2_" class="st6" points="441.3,570.1 444.4,522.9 487.2,525.7 484.1,573 					"/>
				</g>
			</mask>
			<path id="Fill-981" class="st30" d="M481.6,563l-15.3,7.9c-3.2,1.6-7.1,0.4-8.7-2.8l-13.5-26.5c-1.6-3.2-0.4-7.1,2.8-8.7
				l15.3-7.9c3.2-1.6,7.1-0.4,8.7,2.8l13.5,26.5C486.1,557.5,484.8,561.4,481.6,563"/>
		</g>
		<path id="Fill-984" class="st28" d="M796.4,772c6.3,12.3,1.4,27.4-10.8,33.7c-12.3,6.3-27.3,1.4-33.6-10.9
			c-6.3-12.3-1.4-27.4,10.8-33.7C775,754.9,790.1,759.7,796.4,772"/>
		<path id="Fill-986" class="st31" d="M791.8,774.4c5,9.8,1.1,21.7-8.6,26.8c-9.7,5-21.7,1.1-26.7-8.6c-5-9.8-1.1-21.7,8.6-26.8
			C774.8,760.7,786.8,764.6,791.8,774.4"/>
		<path id="Fill-988" class="st28" d="M819,836l-28.5,14.6c-1.7,0.9-3.8,0.2-4.6-1.5l-1.9-3.8c-0.9-1.7-0.2-3.8,1.5-4.6l28.5-14.6
			c1.7-0.9,3.8-0.2,4.6,1.5l1.9,3.8C821.3,833.1,820.7,835.1,819,836"/>
		<path id="Fill-990" class="st32" d="M669.5,593.9c0.6,1.3,0.1,2.8-1.1,3.4c-1.3,0.6-2.8,0.1-3.4-1.1c-0.6-1.3-0.1-2.8,1.1-3.4
			C667.3,592.2,668.8,592.7,669.5,593.9"/>
		<path id="Fill-992" class="st32" d="M664,583.1c0.6,1.3,0.1,2.8-1.1,3.4c-1.3,0.6-2.8,0.1-3.4-1.1c-0.6-1.3-0.1-2.8,1.1-3.4
			C661.8,581.4,663.3,581.9,664,583.1"/>
		<path id="Fill-994" class="st32" d="M675,604.7c0.6,1.3,0.1,2.8-1.1,3.4c-1.3,0.6-2.8,0.1-3.4-1.1c-0.6-1.3-0.1-2.8,1.1-3.4
			C672.8,603,674.3,603.5,675,604.7"/>
		<path id="Fill-996" class="st32" d="M684.9,586c0.6,1.3,0.1,2.8-1.1,3.4c-1.3,0.6-2.8,0.1-3.4-1.1c-0.6-1.3-0.1-2.8,1.1-3.4
			C682.7,584.3,684.3,584.8,684.9,586"/>
		<path id="Fill-998" class="st32" d="M679.4,575.2c0.6,1.3,0.1,2.8-1.1,3.4c-1.3,0.6-2.8,0.1-3.4-1.1c-0.6-1.3-0.1-2.8,1.1-3.4
			C677.2,573.5,678.7,574,679.4,575.2"/>
		<path id="Fill-1000" class="st32" d="M690.4,596.8c0.6,1.3,0.1,2.8-1.1,3.4c-1.3,0.6-2.8,0.1-3.4-1.1c-0.6-1.3-0.1-2.8,1.1-3.4
			C688.2,595.1,689.8,595.6,690.4,596.8"/>
		<path id="Fill-1002" class="st33" d="M662.8,607.9c-1.6,0.8-2.2,2.8-1.4,4.3s2.7,2.2,4.3,1.4c1.6-0.8,2.2-2.8,1.4-4.3
			C666.3,607.7,664.4,607.1,662.8,607.9"/>
		<path id="Fill-1004" class="st33" d="M657.4,597.3c-1.6,0.8-2.2,2.8-1.4,4.3c0.8,1.6,2.7,2.2,4.3,1.4c1.6-0.8,2.2-2.8,1.4-4.3
			C660.9,597.1,659,596.5,657.4,597.3"/>
		<path id="Fill-1006" class="st33" d="M654.9,592.4c1.6-0.8,2.2-2.8,1.4-4.3c-0.8-1.6-2.7-2.2-4.3-1.4c-1.6,0.8-2.2,2.8-1.4,4.3
			C651.4,592.6,653.3,593.2,654.9,592.4"/>
		<path id="Fill-1008" class="st33" d="M696.5,590.6c-1.6,0.8-2.2,2.8-1.4,4.3c0.8,1.6,2.7,2.2,4.3,1.4c1.6-0.8,2.2-2.8,1.4-4.3
			C700,590.4,698.1,589.8,696.5,590.6"/>
		<path id="Fill-1010" class="st33" d="M691.1,580c-1.6,0.8-2.2,2.8-1.4,4.3c0.8,1.6,2.7,2.2,4.3,1.4c1.6-0.8,2.2-2.8,1.4-4.3
			C694.6,579.8,692.6,579.2,691.1,580"/>
		<path id="Fill-1012" class="st33" d="M688.6,575.1c1.6-0.8,2.2-2.8,1.4-4.3c-0.8-1.6-2.7-2.2-4.3-1.4c-1.6,0.8-2.2,2.8-1.4,4.3
			C685.1,575.3,687,575.9,688.6,575.1"/>
		<polygon id="Fill-1014" class="st34" points="810.6,831.5 809.9,831.9 692.5,605.6 693.1,605.2 		"/>
		<polygon id="Fill-1016" class="st34" points="806.2,833.8 689.5,607.1 690.2,606.7 806.8,833.5 		"/>
		<polygon id="Fill-1018" class="st34" points="802.4,835.7 686.6,608.6 687.3,608.3 803.1,835.4 		"/>
		<polygon id="Fill-1020" class="st34" points="798.7,837.6 683.7,610.1 684.3,609.8 799.4,837.3 		"/>
		<polygon id="Fill-1022" class="st34" points="795,839.6 680.7,611.6 681.4,611.3 795.6,839.2 		"/>
		<polygon id="Fill-1024" class="st34" points="791.3,841.5 791.9,841.2 678.4,612.8 677.8,613.2 		"/>
	</g>
	<g>
		<path class="st35" d="M1039.5,746.2C1039.5,746.2,1039.4,746.2,1039.5,746.2l-93.7-7.3c-0.6,0-1-0.5-1-1.1c0-0.6,0.6-1,1.1-1
			l93.6,7.3c0.6,0,1,0.5,1,1.1C1040.5,745.8,1040,746.2,1039.5,746.2z"/>
		<path class="st35" d="M1444.9,746.2c-0.5,0-1-0.4-1-1c0-0.6,0.4-1.1,1-1.1l93.6-7.3c0.6,0,1.1,0.4,1.1,1c0,0.6-0.4,1.1-1,1.1
			L1444.9,746.2C1444.9,746.2,1444.9,746.2,1444.9,746.2z"/>
		<g>
			<polygon class="st36" points="1243.4,368.2 1242.2,367.4 1240.9,368.2 1240.9,312.1 1242.2,310.4 1243.4,312.1 			"/>
			<polygon class="st37" points="1312.6,346 1266.1,350.1 1274.3,318.4 1312.6,314.3 1296.9,331.8 			"/>
			<polygon class="st38" points="1266.1,350.1 1274.3,318.4 1290.8,310.2 1282.5,341.9 			"/>
			<polygon class="st39" points="1282.5,341.9 1240.9,346 1240.9,314.3 1290.8,310.2 			"/>
		</g>
		<polygon class="st40" points="960,620.2 1242.2,352.9 1524.4,620.2 1242.2,517.6 		"/>
		<path class="st41" d="M843.6,743.4h-0.5c-1.5-9.1-2.8-19.1-4.4-23.2c0-1.2,9.3-1.2,9.3,0C846.1,725.1,844.8,734.3,843.6,743.4z"/>
		<path class="st41" d="M1641.3,743.4h-0.5c-1.5-9.1-2.8-19.1-4.4-23.2c0-1.2,9.3-1.2,9.3,0C1643.9,725.1,1642.5,734.3,1641.3,743.4
			z"/>
		<path class="st35" d="M1639,734.6c-0.3,0-0.5-0.1-0.7-0.3l-120.9-113.4c-0.4-0.4-0.4-1,0-1.5c0.4-0.4,1-0.4,1.5,0l120.9,113.4
			c0.4,0.4,0.4,1,0,1.5C1639.6,734.4,1639.3,734.6,1639,734.6z"/>
		<path class="st35" d="M845.3,734.6c-0.3,0-0.6-0.1-0.8-0.3c-0.4-0.4-0.4-1.1,0-1.5l120.9-113.4c0.4-0.4,1.1-0.4,1.5,0
			c0.4,0.4,0.4,1.1,0,1.5L846,734.3C845.8,734.5,845.6,734.6,845.3,734.6z"/>
		<polygon class="st42" points="1010.2,605.5 1039.5,745.2 1242.2,745.2 1242.2,364.8 		"/>
		<polygon class="st43" points="1474.2,605.5 1242.2,364.8 1242.2,745.2 1444.9,745.2 		"/>
		<path class="st44" d="M1242.2,507.3l-158.8,186.1c40.4,0,72.2,45.9,72.2,45.9l86.6,5.9l86.6-5.9c0,0,31.8-45.9,72.2-45.9
			L1242.2,507.3z"/>
		<polygon class="st44" points="1242.2,361.4 966.2,620.2 1010.2,605.5 1242.2,364.8 1474.2,605.5 1518.1,620.2 		"/>
		<g>
			<path class="st17" d="M1121.8,474.1l120.4-115.5l120.4,115.5c0,0-55.6-20-120.4-20C1177.4,454.1,1121.8,474.1,1121.8,474.1z"/>
			<path class="st45" d="M1242.2,453.1c-41.9,0-82.4,7.1-120.4,21l0,0c34.6-12.7,97.3-14.3,120.4-14.1c23.1,0.2,85.8,1.4,120.4,14.1
				l0,0C1324.6,460.2,1284.1,453.1,1242.2,453.1z"/>
		</g>
		<path class="st41" d="M1524.4,620.2c0,3.4-2.8,6.2-6.2,6.2c-3.4,0-6.2-2.8-6.2-6.2c0-3.4,2.8-6.2,6.2-6.2
			C1521.6,613.9,1524.4,616.7,1524.4,620.2z"/>
		<path class="st41" d="M972.5,620.2c0,3.4-2.8,6.2-6.2,6.2c-3.4,0-6.2-2.8-6.2-6.2c0-3.4,2.8-6.2,6.2-6.2
			C969.7,613.9,972.5,616.7,972.5,620.2z"/>
		<path class="st35" d="M839,743.3c0,1.1,0.9,1.9,1.9,1.9h4.8c1.1,0,1.9-0.9,1.9-1.9v-10c0-1.1-0.9-1.9-1.9-1.9h-4.8
			c-1.1,0-1.9,0.9-1.9,1.9V743.3z"/>
		<path class="st35" d="M1636.7,743.3c0,1.1,0.9,1.9,1.9,1.9h4.8c1.1,0,1.9-0.9,1.9-1.9v-10c0-1.1-0.9-1.9-1.9-1.9h-4.8
			c-1.1,0-1.9,0.9-1.9,1.9V743.3z"/>
		<g>
			<path class="st41" d="M1538.7,743.4h-0.5c-1.5-9.1-2.8-19.1-4.4-23.2c0-1.2,9.3-1.2,9.3,0
				C1541.3,725.1,1539.9,734.3,1538.7,743.4z"/>
			<path class="st35" d="M1534.1,743.3c0,1.1,0.9,1.9,1.9,1.9h4.8c1.1,0,1.9-0.9,1.9-1.9v-10c0-1.1-0.9-1.9-1.9-1.9h-4.8
				c-1.1,0-1.9,0.9-1.9,1.9V743.3z"/>
		</g>
		<g>
			<path class="st41" d="M946.1,743.4h-0.5c-1.5-9.1-2.8-19.1-4.4-23.2c0-1.2,9.3-1.2,9.3,0C948.7,725.1,947.4,734.3,946.1,743.4z"
				/>
			<path class="st35" d="M941.5,743.3c0,1.1,0.9,1.9,1.9,1.9h4.8c1.1,0,1.9-0.9,1.9-1.9v-10c0-1.1-0.9-1.9-1.9-1.9h-4.8
				c-1.1,0-1.9,0.9-1.9,1.9V743.3z"/>
		</g>
		<polygon class="st46" points="1165.9,716.8 1242.2,507.3 1318.4,716.8 		"/>
		<path class="st35" d="M1444.9,746.2c-0.3,0-0.6-0.1-0.8-0.4l-44-51.7c-0.4-0.4-0.3-1.1,0.1-1.5c0.4-0.4,1.1-0.3,1.5,0.1l44,51.7
			c0.4,0.4,0.3,1.1-0.1,1.5C1445.4,746.2,1445.1,746.2,1444.9,746.2z"/>
		<path class="st35" d="M1039.5,746.2c-0.2,0-0.5-0.1-0.7-0.2c-0.4-0.4-0.5-1-0.1-1.5l44-51.7c0.4-0.4,1-0.5,1.5-0.1
			c0.4,0.4,0.5,1,0.1,1.5l-44,51.7C1040.1,746.1,1039.8,746.2,1039.5,746.2z"/>
		<path class="st41" d="M1089.6,693.4c0,3.4-2.8,6.2-6.2,6.2c-3.4,0-6.2-2.8-6.2-6.2c0-3.4,2.8-6.2,6.2-6.2
			C1086.8,687.2,1089.6,690,1089.6,693.4z"/>
		<path class="st41" d="M1407.2,693.4c0,3.4-2.8,6.2-6.2,6.2s-6.2-2.8-6.2-6.2s2.8-6.2,6.2-6.2S1407.2,690,1407.2,693.4z"/>
		<path class="st41" d="M1451.1,745.2c0,3.4-2.8,6.2-6.2,6.2c-3.4,0-6.2-2.8-6.2-6.2c0-3.4,2.8-6.2,6.2-6.2
			C1448.3,739,1451.1,741.8,1451.1,745.2z"/>
		<path class="st41" d="M1045.7,745.2c0,3.4-2.8,6.2-6.2,6.2c-3.4,0-6.2-2.8-6.2-6.2c0-3.4,2.8-6.2,6.2-6.2
			C1042.9,739,1045.7,741.8,1045.7,745.2z"/>
		<polygon class="st42" points="1165.9,716.8 1155.6,745.2 1242.2,745.2 1242.2,716.8 		"/>
		<polygon class="st43" points="1318.4,716.8 1242.2,716.8 1242.2,745.2 1328.7,745.2 		"/>
		<rect x="1039.5" y="739" class="st41" width="405.4" height="12.5"/>
	</g>
	<g id="Group-16_1_" transform="translate(691.000000, 351.000000)">
		<ellipse class="st47" cx="806.4" cy="504.2" rx="50.9" ry="23.1"/>
		
			<g id="Group-14-Copy-8_1_" transform="translate(37.117522, 76.529558) rotate(6.000000) translate(-37.117522, -76.529558) translate(15.617522, 67.029558)">
			<path class="st13" d="M767.8,341.9c0.7-7.2,13.5-13.8,26-14.9s22.9,3.2,29.3,6.6c6.4,3.4-1.1,10.1-4.2,12.6
				c-3.2,2.5-13.7,7.1-27.6,6.3S767,349,767.8,341.9z"/>
			<path class="st14" d="M773.2,338.7c2.5,2.1,22.4,0.8,30-1.2c7.6-2,11.8-3.1,10.3-5.7s-5.6-6.1-21.2-4
				C776.6,329.9,770.6,336.7,773.2,338.7z"/>
			<path class="st15" d="M783.6,335.5c1.4,1.5,12.7,0.6,17-0.8s6.7-2.3,5.9-4.1s-3.2-4.4-12.1-2.9
				C785.5,329.1,782.2,334,783.6,335.5z"/>
		</g>
		
			<g id="Group-14-Copy-3_1_" transform="translate(24.154979, 90.235824) rotate(6.000000) translate(-24.154979, -90.235824) translate(1.154979, 80.235824)">
			<path class="st13" d="M763.1,347.1c0.7-7.2,13.5-13.8,26-14.9c12.5-1.1,22.9,3.2,29.3,6.6c6.4,3.4,5.7,7.8,5.7,12.1
				s-23.6,7.6-37.6,6.8C772.6,356.8,762.4,354.2,763.1,347.1z"/>
			<path class="st14" d="M765,348.8c2.7,3,24.4,1.2,32.6-1.7c8.2-2.8,12.8-4.5,11.2-8.2c-1.6-3.7-6.1-8.6-23.1-5.7
				C768.7,336.2,762.3,345.8,765,348.8z"/>
			<path class="st15" d="M775.3,344.2c1.1,1.5,9.8,0.6,13.1-0.8c3.3-1.4,5.2-2.3,4.5-4.1s-2.4-4.4-9.3-2.9S774.2,342.7,775.3,344.2z
				"/>
		</g>
		
			<g id="Group-14-Copy-7_1_" transform="translate(65.522506, 72.220827) rotate(6.000000) translate(-65.522506, -72.220827) translate(43.022506, 62.220827)">
			<path class="st13" d="M776.9,339.6c0.8-7.4,14.1-14.3,27.2-15.4c13.1-1.1,23.9,3.3,30.6,6.8c6.7,3.5-1.1,10.4-4.4,13
				c-3.3,2.6-14.3,7.4-28.9,6.5C786.8,349.6,776.1,347,776.9,339.6z"/>
			<path class="st14" d="M781,337c2.7,2.3,24.2,0.9,32.4-1.3s12.8-3.5,11.2-6.5c-1.6-2.9-6-6.8-22.9-4.5
				C784.7,327,778.3,334.6,781,337z"/>
			<path class="st15" d="M793.2,332.1c1.5,1.5,13.6,0.6,18.1-0.8c4.6-1.4,7.1-2.2,6.3-4s-3.4-4.3-12.8-2.8
				C795.3,325.9,791.7,330.7,793.2,332.1z"/>
		</g>
		
			<g id="Group-14-Copy-11_1_" transform="translate(101.700418, 81.307021) scale(-1, 1) rotate(-6.000000) translate(-101.700418, -81.307021) translate(79.200418, 71.307021)">
			<path class="st13" d="M-806.2,341.5c0.8-7.4,14.1-14.3,27.2-15.4s23.9,3.3,30.6,6.8s-1.1,10.4-4.4,13c-3.3,2.6-14.3,7.4-28.9,6.5
				C-796.3,351.5-806.9,348.8-806.2,341.5z"/>
			<path class="st14" d="M-802,338.9c2.7,2.3,24.2,0.9,32.4-1.3s12.8-3.5,11.2-6.5s-6-6.8-22.9-4.5
				C-798.3,328.9-804.7,336.5-802,338.9z"/>
			<path class="st15" d="M-789.9,334c1.5,1.5,13.6,0.6,18.1-0.8c4.6-1.4,7.1-2.2,6.3-4s-3.4-4.3-12.8-2.8
				C-787.8,327.8-791.4,332.5-789.9,334z"/>
		</g>
		
			<g id="Group-14-Copy_1_" transform="translate(38.557041, 108.509508) rotate(6.000000) translate(-38.557041, -108.509508) translate(15.557041, 98.509508)">
			<path class="st13" d="M768.9,353.1c0.7-7.2,13.5-13.8,26-14.9s22.9,3.2,29.3,6.6c6.4,3.4,5.7,7.8,5.7,12.1
				c0,4.3-23.6,7.6-37.6,6.8S768.2,360.2,768.9,353.1z"/>
			<path class="st14" d="M770.8,354.7c2.7,3,24.4,1.2,32.6-1.7c8.2-2.8,12.8-4.5,11.2-8.2c-1.6-3.7-6.1-8.6-23.1-5.7
				C774.5,342.1,768.1,351.8,770.8,354.7z"/>
			<path class="st15" d="M775.9,350.2c1.4,1.5,12.7,0.6,17-0.8c4.3-1.4,6.7-2.3,5.9-4.1s-3.2-4.4-12.1-2.9S774.4,348.7,775.9,350.2z
				"/>
		</g>
		
			<g id="Group-14-Copy-2_1_" transform="translate(69.849481, 109.161137) rotate(6.000000) translate(-69.849481, -109.161137) translate(48.349481, 99.661137)">
			<path class="st13" d="M780.6,352.3c0.7-7.2,13.5-13.8,26-14.9s22.9,3.2,29.3,6.6c6.4,3.4-1.1,10.1-4.2,12.6
				c-3.2,2.5-13.7,7.1-27.6,6.3C790.1,362,779.9,359.4,780.6,352.3z"/>
			<path class="st14" d="M786,349.1c2.5,2.1,22.4,0.8,30-1.2s11.8-3.1,10.3-5.7c-1.5-2.6-5.6-6.1-21.2-4S783.5,347,786,349.1z"/>
			<path class="st15" d="M796.5,345.9c1.4,1.5,12.7,0.6,17-0.8c4.3-1.4,6.7-2.3,5.9-4.1s-3.2-4.4-12.1-2.9S795,344.4,796.5,345.9z"
				/>
		</g>
		
			<g id="Group-14-Copy-4_1_" transform="translate(91.956827, 98.252128) rotate(6.000000) translate(-91.956827, -98.252128) translate(71.956827, 87.752128)">
			<path class="st13" d="M788.6,347.2c0.7-7.2,13.1-13.8,25.1-14.9c12.1-1.1,24,4.3,26.6,7.3s-1.2,11.6-4.2,14.2
				c-3.1,2.5-6.6,7.3-20.1,6.4C802.6,359.3,787.9,354.4,788.6,347.2z"/>
			<path class="st14" d="M790.5,351c2.5,2.4,22.4,0.9,30-1.3s11.8-3.6,10.3-6.5c-1.5-3-5.6-6.9-21.2-4.6
				C793.9,340.9,788,348.6,790.5,351z"/>
			<path class="st15" d="M799.1,347.9c1.4,1.5,12.7,0.6,17-0.8c4.3-1.4,6.7-2.3,5.9-4.1s-3.2-4.4-12.1-2.9
				C801.1,341.5,797.7,346.4,799.1,347.9z"/>
		</g>
		<g transform="translate(33.000000, 0.000000)">
			<g>
				<defs>
					<filter id="Adobe_OpacityMaskFilter_3_" filterUnits="userSpaceOnUse" x="734.7" y="382.2" width="84.2" height="129.5">
						<feColorMatrix  type="matrix" values="1 0 0 0 0  0 1 0 0 0  0 0 1 0 0  0 0 0 1 0"/>
					</filter>
				</defs>
				<mask maskUnits="userSpaceOnUse" x="734.7" y="382.2" width="84.2" height="129.5" id="mask-22_1_">
					<g class="st48">
						<polygon id="path-21_1_" class="st6" points="734.7,382.2 818.9,382.2 818.9,511.6 734.7,511.6 						"/>
					</g>
				</mask>
				<path class="st49" d="M754.3,511.6c0,0-44-23.4,0-83.2c0,0,8.7,17.9,12.4,19.1c0,0-13.6-38.8,9.9-65.4c0,0,5.6,29,17.4,45
					s49.6,58.6,0,84.5H754.3z"/>
			</g>
			<path class="st50" d="M796.6,507.5c4.1-8.7,6.2-16.2,6.2-22.4c0-20.6-11.6-37.2-26-37.2c-0.7,0-1.4,0.1-2.2,0.2
				c4,3.3,6.7,10.2,6.7,18.3c0,11.2-5.4,20.3-12,20.3c-6.6,0-12-9.1-12-20.3c0-2.5,0.3-4.8,0.7-7c-4.5,6.7-7.3,15.8-7.3,25.8
				c0,6.2,2.1,13.7,6.2,22.4l0,0c1.8,3.8,5.6,6.2,9.8,6.2h19.9C791,513.7,794.8,511.3,796.6,507.5z"/>
			<path id="Fill-6_1_" class="st27" d="M763.4,502.8c0,0,1-10.7,14.1-10.4c13,0.3,17.9,11.9,16,11.9c-1.8,0-13.3,9.5-13.3,9.5
				L763.4,502.8z"/>
		</g>
	</g>
</g>
</svg>
